<svg width="33" height="32" viewBox="0 0 33 32" fill="none" xmlns="http://www.w3.org/2000/svg">
<g clip-path="url(#clip0_882_4037)">
<path d="M10.9453 15C10.9453 14.7348 11.0507 14.4804 11.2382 14.2929C11.4257 14.1054 11.6801 14 11.9453 14H13.9453V12C13.9453 11.7348 14.0507 11.4804 14.2382 11.2929C14.4257 11.1054 14.6801 11 14.9453 11C15.2105 11 15.4649 11.1054 15.6524 11.2929C15.84 11.4804 15.9453 11.7348 15.9453 12V14H17.9453C18.2105 14 18.4649 14.1054 18.6524 14.2929C18.84 14.4804 18.9453 14.7348 18.9453 15C18.9453 15.2652 18.84 15.5196 18.6524 15.7071C18.4649 15.8946 18.2105 16 17.9453 16H15.9453V18C15.9453 18.2652 15.84 18.5196 15.6524 18.7071C15.4649 18.8946 15.2105 19 14.9453 19C14.6801 19 14.4257 18.8946 14.2382 18.7071C14.0507 18.5196 13.9453 18.2652 13.9453 18V16H11.9453C11.6801 16 11.4257 15.8946 11.2382 15.7071C11.0507 15.5196 10.9453 15.2652 10.9453 15ZM32.9453 15V23C32.9453 23.5304 32.7346 24.0391 32.3595 24.4142C31.9845 24.7893 31.4757 25 30.9453 25H28.8203C28.6 25.8604 28.0996 26.623 27.398 27.1676C26.6964 27.7122 25.8335 28.0078 24.9453 28.0078C24.0571 28.0078 23.1942 27.7122 22.4926 27.1676C21.791 26.623 21.2906 25.8604 21.0703 25H14.8203C14.6 25.8604 14.0996 26.623 13.398 27.1676C12.6964 27.7122 11.8335 28.0078 10.9453 28.0078C10.0571 28.0078 9.19423 27.7122 8.49262 27.1676C7.79101 26.623 7.29061 25.8604 7.07031 25H4.94531C4.41488 25 3.90617 24.7893 3.5311 24.4142C3.15603 24.0391 2.94531 23.5304 2.94531 23V9C2.94531 8.46957 3.15603 7.96086 3.5311 7.58579C3.90617 7.21071 4.41488 7 4.94531 7H23.9453C24.2105 7 24.4649 7.10536 24.6524 7.29289C24.84 7.48043 24.9453 7.73478 24.9453 8V9H29.2678C29.6679 8.99872 30.0591 9.11801 30.3905 9.34231C30.7218 9.56662 30.9779 9.88554 31.1253 10.2575L32.8753 14.6325C32.9218 14.7494 32.9455 14.8742 32.9453 15ZM24.9453 11V14H30.4678L29.2678 11H24.9453ZM4.94531 23H7.07031C7.29061 22.1396 7.79101 21.377 8.49262 20.8324C9.19423 20.2878 10.0571 19.9922 10.9453 19.9922C11.8335 19.9922 12.6964 20.2878 13.398 20.8324C14.0996 21.377 14.6 22.1396 14.8203 23H21.0703C21.2045 22.4861 21.4393 22.0039 21.7611 21.5814C22.083 21.159 22.4855 20.8045 22.9453 20.5387V9H4.94531V23ZM12.9453 24C12.9453 23.6044 12.828 23.2178 12.6083 22.8889C12.3885 22.56 12.0761 22.3036 11.7107 22.1522C11.3452 22.0009 10.9431 21.9613 10.5551 22.0384C10.1672 22.1156 9.8108 22.3061 9.5311 22.5858C9.25139 22.8655 9.06091 23.2219 8.98374 23.6098C8.90657 23.9978 8.94618 24.3999 9.09755 24.7654C9.24893 25.1308 9.50527 25.4432 9.83417 25.6629C10.1631 25.8827 10.5497 26 10.9453 26C11.4757 26 11.9845 25.7893 12.3595 25.4142C12.7346 25.0391 12.9453 24.5304 12.9453 24ZM26.9453 24C26.9453 23.6044 26.828 23.2178 26.6083 22.8889C26.3885 22.56 26.0761 22.3036 25.7107 22.1522C25.3452 22.0009 24.9431 21.9613 24.5551 22.0384C24.1672 22.1156 23.8108 22.3061 23.5311 22.5858C23.2514 22.8655 23.0609 23.2219 22.9837 23.6098C22.9066 23.9978 22.9462 24.3999 23.0976 24.7654C23.2489 25.1308 23.5053 25.4432 23.8342 25.6629C24.1631 25.8827 24.5497 26 24.9453 26C25.4757 26 25.9845 25.7893 26.3595 25.4142C26.7346 25.0391 26.9453 24.5304 26.9453 24ZM30.9453 23V16H24.9453V20C25.8321 20.0008 26.6936 20.2958 27.3948 20.8387C28.096 21.3815 28.5974 22.1417 28.8203 23H30.9453Z" fill="#616161"/>
</g>
<defs>
<clipPath id="clip0_882_4037">
<rect width="32" height="32" fill="white" transform="translate(0.945312)"/>
</clipPath>
</defs>
</svg>
