<svg width="12" height="12" viewBox="0 0 12 12" fill="none" xmlns="http://www.w3.org/2000/svg">
<path d="M10.668 3.70756V9.65678C10.668 9.7478 10.6318 9.83511 10.5674 9.89947C10.5031 9.96384 10.4158 10 10.3247 10H4.37553C4.2845 10 4.1972 9.96384 4.13283 9.89947C4.06846 9.83511 4.0323 9.7478 4.0323 9.65678C4.0323 9.56575 4.06846 9.47845 4.13283 9.41408C4.1972 9.34971 4.2845 9.31355 4.37553 9.31355H9.49643L2.76009 2.57721C2.69946 2.51214 2.66645 2.42609 2.66802 2.33717C2.66959 2.24825 2.70561 2.16341 2.7685 2.10053C2.83138 2.03764 2.91622 2.00162 3.00514 2.00005C3.09406 1.99848 3.18011 2.03149 3.24518 2.09212L9.98152 8.82846V3.70756C9.98152 3.61653 10.0177 3.52923 10.082 3.46486C10.1464 3.4005 10.2337 3.36433 10.3247 3.36433C10.4158 3.36433 10.5031 3.4005 10.5674 3.46486C10.6318 3.52923 10.668 3.61653 10.668 3.70756Z" fill="white"/>
</svg>
