<svg width="32" height="31" viewBox="0 0 32 31" fill="none" xmlns="http://www.w3.org/2000/svg">
<path d="M12.0859 16.9531C11.7985 16.9531 11.5176 16.8679 11.2786 16.7082C11.0397 16.5486 10.8534 16.3216 10.7434 16.0561C10.6334 15.7906 10.6047 15.4984 10.6607 15.2165C10.7168 14.9346 10.8552 14.6757 11.0584 14.4725C11.2617 14.2693 11.5206 14.1309 11.8025 14.0748C12.0843 14.0187 12.3765 14.0475 12.642 14.1575C12.9076 14.2675 13.1345 14.4537 13.2942 14.6927C13.4538 14.9317 13.5391 15.2126 13.5391 15.5C13.5391 15.8854 13.386 16.255 13.1135 16.5275C12.8409 16.8 12.4713 16.9531 12.0859 16.9531ZM20.8047 14.0469C20.5173 14.0469 20.2363 14.1321 19.9974 14.2918C19.7584 14.4514 19.5722 14.6784 19.4622 14.9439C19.3522 15.2094 19.3234 15.5016 19.3795 15.7835C19.4356 16.0654 19.574 16.3243 19.7772 16.5275C19.9804 16.7307 20.2393 16.8691 20.5212 16.9252C20.8031 16.9813 21.0953 16.9525 21.3608 16.8425C21.6263 16.7325 21.8533 16.5463 22.0129 16.3073C22.1726 16.0683 22.2578 15.7874 22.2578 15.5C22.2578 15.1146 22.1047 14.745 21.8322 14.4725C21.5597 14.2 21.1901 14.0469 20.8047 14.0469ZM19.3189 19.5239C18.4561 20.0594 17.4608 20.3432 16.4453 20.3432C15.4298 20.3432 14.4346 20.0594 13.5718 19.5239C13.3543 19.3868 13.0913 19.3417 12.8406 19.3984C12.5899 19.4552 12.372 19.6093 12.2349 19.8267C12.0978 20.0441 12.0526 20.3071 12.1094 20.5578C12.1662 20.8085 12.3202 21.0264 12.5376 21.1636C13.71 21.8944 15.0638 22.2818 16.4453 22.2818C17.8268 22.2818 19.1806 21.8944 20.353 21.1636C20.5704 21.0264 20.7245 20.8085 20.7813 20.5578C20.838 20.3071 20.7929 20.0441 20.6557 19.8267C20.5186 19.6093 20.3007 19.4552 20.05 19.3984C19.7993 19.3417 19.5363 19.3868 19.3189 19.5239ZM29.0391 15.5C29.0391 17.9908 28.3005 20.4257 26.9166 22.4967C25.5328 24.5677 23.5659 26.1819 21.2647 27.1351C18.9635 28.0883 16.4313 28.3377 13.9884 27.8518C11.5455 27.3658 9.30146 26.1664 7.54019 24.4051C5.77892 22.6439 4.57949 20.3999 4.09355 17.9569C3.60762 15.514 3.85702 12.9818 4.81021 10.6806C5.7634 8.37937 7.37757 6.4125 9.44861 5.02868C11.5196 3.64486 13.9545 2.90625 16.4453 2.90625C19.7843 2.90978 22.9855 4.23775 25.3465 6.59877C27.7076 8.95979 29.0355 12.161 29.0391 15.5ZM27.1016 15.5C27.0982 12.7568 26.0384 10.1203 24.1422 8.13796C22.246 6.15563 19.6591 4.9798 16.9188 4.85465C15.5153 6.82727 15.4766 8.70422 15.4766 8.71875C15.4766 8.97568 15.5786 9.22208 15.7603 9.40376C15.942 9.58544 16.1884 9.6875 16.4453 9.6875C16.7022 9.6875 16.9487 9.58544 17.1303 9.40376C17.312 9.22208 17.4141 8.97568 17.4141 8.71875C17.4141 8.46182 17.5161 8.21542 17.6978 8.03374C17.8795 7.85206 18.1259 7.75 18.3828 7.75C18.6397 7.75 18.8862 7.85206 19.0678 8.03374C19.2495 8.21542 19.3516 8.46182 19.3516 8.71875C19.3516 9.48954 19.0454 10.2288 18.5003 10.7738C17.9553 11.3188 17.2161 11.625 16.4453 11.625C15.6745 11.625 14.9353 11.3188 14.3903 10.7738C13.8453 10.2288 13.5391 9.48954 13.5391 8.71875C13.5391 8.63035 13.5548 6.98711 14.5635 5.00965C12.5683 5.36761 10.7166 6.28721 9.22568 7.66054C7.73475 9.03387 6.66644 10.804 6.14612 12.7631C5.62579 14.7222 5.67505 16.7891 6.2881 18.7212C6.90115 20.6534 8.05256 22.3706 9.60722 23.6713C11.1619 24.9721 13.0553 25.8024 15.0653 26.0649C17.0752 26.3275 19.1184 26.0112 20.955 25.1534C22.7916 24.2956 24.3454 22.9317 25.4341 21.2218C26.5228 19.512 27.1013 17.5271 27.1016 15.5Z" fill="#616161"/>
</svg>
