<svg width="31" height="31" viewBox="0 0 31 31" fill="none" xmlns="http://www.w3.org/2000/svg">
<path d="M18.0846 25.1229C16.9713 26.1187 15.594 26.7716 14.1184 27.0029C12.6427 27.2343 11.1317 27.0343 9.76706 26.427C8.40242 25.8198 7.24234 24.8311 6.42641 23.58C5.61048 22.3289 5.17347 20.8686 5.16797 19.375C5.16797 14.2083 7.7513 12.9167 12.918 3.875C15.6046 8.56375 17.5809 11.1729 18.8726 13.3042" stroke="#616161" stroke-width="2" stroke-linecap="round" stroke-linejoin="round"/>
<path d="M20.6667 10.333C17.2179 16.3651 15.5 17.2176 15.5 20.6663C15.5 22.0366 16.0443 23.3508 17.0133 24.3197C17.9822 25.2887 19.2964 25.833 20.6667 25.833C22.037 25.833 23.3511 25.2887 24.3201 24.3197C25.289 23.3508 25.8333 22.0366 25.8333 20.6663C25.8333 17.2176 24.1154 16.3651 20.6667 10.333Z" stroke="#616161" stroke-width="2" stroke-linecap="round" stroke-linejoin="round"/>
</svg>
