<svg width="31" height="31" viewBox="0 0 31 31" fill="none" xmlns="http://www.w3.org/2000/svg">
<path d="M28.0555 7.3732C27.3322 6.50222 26.2971 5.94857 25.1711 5.83046C25.0996 5.17996 24.8826 4.55389 24.5361 3.99871C24.1897 3.44352 23.7226 2.97347 23.1697 2.6234C22.6168 2.27334 21.9922 2.05225 21.3421 1.97654C20.6921 1.90083 20.0334 1.97244 19.4148 2.18605C18.7962 2.39967 18.2337 2.74981 17.7689 3.21051C17.3041 3.6712 16.949 4.23063 16.7299 4.8473C16.5109 5.46396 16.4334 6.12203 16.5034 6.7727C16.5734 7.42337 16.7889 8.04994 17.1341 8.60593C17.1346 8.60914 17.1346 8.61241 17.1341 8.61562L8.62 17.1358C8.62 17.1358 8.62 17.1358 8.60789 17.1358C8.05189 16.7906 7.42532 16.5751 6.77465 16.5051C6.12398 16.4351 5.46591 16.5126 4.84925 16.7316C4.23259 16.9507 3.67316 17.3058 3.21246 17.7706C2.75177 18.2354 2.40162 18.7979 2.18801 19.4165C1.97439 20.0351 1.90278 20.6938 1.97849 21.3438C2.0542 21.9938 2.27529 22.6185 2.62535 23.1714C2.97542 23.7243 3.44548 24.1913 4.00066 24.5378C4.55585 24.8843 5.18191 25.1013 5.83242 25.1728C5.9039 25.8233 6.12092 26.4493 6.46738 27.0045C6.81385 27.5597 7.28086 28.0298 7.83378 28.3798C8.3867 28.7299 9.01134 28.951 9.66137 29.0267C10.3114 29.1024 10.9701 29.0308 11.5887 28.8172C12.2073 28.6036 12.7698 28.2534 13.2346 27.7927C13.6994 27.332 14.0545 26.7726 14.2736 26.1559C14.4926 25.5393 14.5701 24.8812 14.5001 24.2305C14.4301 23.5799 14.2146 22.9533 13.8694 22.3973C13.8692 22.3941 13.8692 22.3908 13.8694 22.3876L22.3884 13.8675C22.3884 13.8675 22.3884 13.8675 22.4005 13.8675C23.2802 14.4216 24.329 14.643 25.3577 14.4918C26.3863 14.3406 27.3271 13.8268 28.0102 13.043C28.6933 12.2592 29.0738 11.257 29.083 10.2174C29.0922 9.1777 28.7295 8.16897 28.0604 7.3732H28.0555ZM26.5334 11.7653C26.1546 12.199 25.6336 12.4836 25.0639 12.5679C24.4942 12.6522 23.9132 12.5308 23.4249 12.2254C23.0532 11.9896 22.6123 11.8873 22.1747 11.9355C21.7371 11.9837 21.329 12.1795 21.0176 12.4906L12.4926 21.0156C12.1822 21.3277 11.9873 21.7361 11.94 22.1736C11.8927 22.6112 11.9958 23.0518 12.2322 23.423C12.4384 23.7546 12.5613 24.1312 12.5905 24.5207C12.6197 24.9101 12.5543 25.3008 12.3998 25.6595C12.2453 26.0182 12.0064 26.3342 11.7034 26.5806C11.4004 26.827 11.0423 26.9965 10.6597 27.0746C10.277 27.1527 9.88118 27.1371 9.50586 27.0291C9.13055 26.9211 8.78691 26.724 8.50425 26.4545C8.22159 26.1851 8.00828 25.8512 7.88253 25.4815C7.75677 25.1118 7.72229 24.7171 7.78203 24.3312C7.80372 24.1929 7.79519 24.0515 7.75702 23.9168C7.71885 23.7822 7.65194 23.6574 7.56091 23.551C7.46987 23.4447 7.35687 23.3593 7.22969 23.3008C7.10251 23.2424 6.96416 23.2121 6.82417 23.2123C6.7743 23.2127 6.72452 23.2167 6.67523 23.2244C6.28969 23.2837 5.89553 23.2489 5.52629 23.1232C5.15705 22.9974 4.82365 22.7843 4.55446 22.502C4.28526 22.2197 4.08823 21.8766 3.98014 21.5018C3.87204 21.127 3.85607 20.7316 3.93359 20.3493C4.01111 19.967 4.17982 19.6091 4.42537 19.306C4.67092 19.003 4.98605 18.7637 5.34395 18.6085C5.70184 18.4534 6.09191 18.387 6.48098 18.415C6.87004 18.443 7.24659 18.5646 7.57859 18.7693C7.95029 19.0052 8.39123 19.1074 8.8288 19.0592C9.26637 19.011 9.67448 18.8152 9.98593 18.5041L18.5109 9.97914C18.8201 9.66742 19.0143 9.25994 19.0616 8.82345C19.1089 8.38696 19.0065 7.94735 18.7713 7.57664C18.5651 7.24497 18.4422 6.86836 18.413 6.47892C18.3838 6.08947 18.4493 5.69875 18.6037 5.34006C18.7582 4.98138 18.9971 4.66536 19.3001 4.41897C19.6031 4.17257 19.9612 4.00311 20.3438 3.92502C20.7265 3.84692 21.1223 3.86253 21.4976 3.97049C21.873 4.07845 22.2166 4.27558 22.4993 4.54506C22.7819 4.81453 22.9952 5.14837 23.121 5.5181C23.2467 5.88784 23.2812 6.2825 23.2215 6.66843C23.1979 6.81916 23.2103 6.97332 23.2576 7.11837C23.3048 7.26342 23.3857 7.39525 23.4936 7.50312C23.6015 7.611 23.7333 7.69187 23.8783 7.73916C24.0234 7.78644 24.1775 7.7988 24.3283 7.77523C24.8214 7.69543 25.3272 7.77008 25.7763 7.98897C26.2253 8.20785 26.5957 8.56025 26.8367 8.99787C27.0776 9.43549 27.1774 9.93692 27.1222 10.4334C27.067 10.93 26.8597 11.3973 26.5285 11.7713L26.5334 11.7653Z" fill="#616161"/>
</svg>
