<svg width="30" height="31" viewBox="0 0 30 31" fill="none" xmlns="http://www.w3.org/2000/svg">
<path d="M29.0634 15.0163C29.0621 13.7331 28.7093 12.4765 28.0456 11.3919C27.382 10.3073 26.4347 9.4391 25.3134 8.88773V8.71941C25.3123 7.47119 24.9224 6.2565 24.2014 5.25505C23.4803 4.2536 22.4664 3.51861 21.3098 3.15881C20.1531 2.79902 18.9151 2.83355 17.7788 3.25728C16.6426 3.68102 15.6686 4.47146 15.0009 5.51163C14.3332 4.47146 13.3591 3.68102 12.2229 3.25728C11.0867 2.83355 9.84867 2.79902 8.69199 3.15881C7.53531 3.51861 6.52145 4.2536 5.80041 5.25505C5.07937 6.2565 4.68946 7.47119 4.68838 8.71941V8.88773C3.56612 9.4376 2.61791 10.3053 1.95394 11.3899C1.28996 12.4746 0.9375 13.7316 0.9375 15.0151C0.9375 16.2985 1.28996 17.5556 1.95394 18.6402C2.61791 19.7249 3.56612 20.5925 4.68838 21.1424V21.3132C4.68946 22.5614 5.07937 23.7761 5.80041 24.7775C6.52145 25.779 7.53531 26.514 8.69199 26.8737C9.84867 27.2335 11.0867 27.199 12.2229 26.7753C13.3591 26.3515 14.3332 25.5611 15.0009 24.5209C15.6686 25.5611 16.6426 26.3515 17.7788 26.7753C18.9151 27.199 20.1531 27.2335 21.3098 26.8737C22.4664 26.514 23.4803 25.779 24.2014 24.7775C24.9224 23.7761 25.3123 22.5614 25.3134 21.3132V21.1424C26.4345 20.5914 27.3817 19.7237 28.0454 18.6395C28.709 17.5553 29.062 16.2991 29.0634 15.0163ZM10.3134 25.1882C9.38871 25.188 8.49669 24.8349 7.80864 24.1965C7.1206 23.5582 6.68505 22.6797 6.58564 21.7297C6.88881 21.7744 7.19464 21.7971 7.50088 21.7975H8.43838C8.68702 21.7975 8.92548 21.6955 9.10129 21.5138C9.27711 21.3321 9.37588 21.0857 9.37588 20.8288C9.37588 20.5719 9.27711 20.3254 9.10129 20.1438C8.92548 19.9621 8.68702 19.86 8.43838 19.86H7.50088C6.39411 19.8614 5.32259 19.458 4.47601 18.7213C3.62943 17.9846 3.06242 16.9622 2.87535 15.835C2.68828 14.7078 2.89322 13.5485 3.4539 12.5625C4.01457 11.5764 4.89481 10.8272 5.93877 10.4474C6.12143 10.3806 6.27957 10.2569 6.39142 10.0934C6.50327 9.9299 6.56335 9.7346 6.56338 9.53437V8.71941C6.56338 7.69169 6.95847 6.70607 7.66173 5.97937C8.36499 5.25266 9.31882 4.84441 10.3134 4.84441C11.3079 4.84441 12.2618 5.25266 12.965 5.97937C13.6683 6.70607 14.0634 7.69169 14.0634 8.71941V16.9853C13.0339 16.0285 11.698 15.4996 10.3134 15.5007C10.0647 15.5007 9.82628 15.6027 9.65047 15.7844C9.47465 15.9661 9.37588 16.2125 9.37588 16.4694C9.37588 16.7263 9.47465 16.9727 9.65047 17.1544C9.82628 17.3361 10.0647 17.4382 10.3134 17.4382C11.3079 17.4382 12.2618 17.8464 12.965 18.5731C13.6683 19.2998 14.0634 20.2854 14.0634 21.3132C14.0634 22.3409 13.6683 23.3265 12.965 24.0532C12.2618 24.7799 11.3079 25.1882 10.3134 25.1882ZM22.5009 19.86H21.5634C21.3147 19.86 21.0763 19.9621 20.9005 20.1438C20.7247 20.3254 20.6259 20.5719 20.6259 20.8288C20.6259 21.0857 20.7247 21.3321 20.9005 21.5138C21.0763 21.6955 21.3147 21.7975 21.5634 21.7975H22.5009C22.8071 21.7971 23.1129 21.7744 23.4161 21.7297C23.3382 22.474 23.0534 23.1791 22.5959 23.7597C22.1385 24.3403 21.5281 24.7715 20.8385 25.0012C20.149 25.2309 19.4098 25.2493 18.7103 25.0542C18.0109 24.859 17.3811 24.4587 16.8971 23.9015C16.4132 23.3444 16.0958 22.6543 15.9833 21.9147C15.8708 21.1751 15.9681 20.4177 16.2634 19.734C16.5586 19.0504 17.0392 18.4697 17.647 18.0623C18.2548 17.6548 18.9639 17.438 19.6884 17.4382C19.937 17.4382 20.1755 17.3361 20.3513 17.1544C20.5271 16.9727 20.6259 16.7263 20.6259 16.4694C20.6259 16.2125 20.5271 15.9661 20.3513 15.7844C20.1755 15.6027 19.937 15.5007 19.6884 15.5007C18.3038 15.4996 16.9679 16.0285 15.9384 16.9853V8.71941C15.9384 7.69169 16.3335 6.70607 17.0367 5.97937C17.74 5.25266 18.6938 4.84441 19.6884 4.84441C20.6829 4.84441 21.6368 5.25266 22.34 5.97937C23.0433 6.70607 23.4384 7.69169 23.4384 8.71941V9.53437C23.4384 9.7346 23.4985 9.9299 23.6103 10.0934C23.7222 10.2569 23.8803 10.3806 24.063 10.4474C25.1069 10.8272 25.9872 11.5764 26.5479 12.5625C27.1085 13.5485 27.3135 14.7078 27.1264 15.835C26.9393 16.9622 26.3723 17.9846 25.5257 18.7213C24.6792 19.458 23.6076 19.8614 22.5009 19.86ZM24.3759 13.5632C24.3759 13.8201 24.2771 14.0665 24.1013 14.2482C23.9255 14.4298 23.687 14.5319 23.4384 14.5319H22.9696C21.8507 14.5319 20.7777 14.0726 19.9865 13.2551C19.1954 12.4375 18.7509 11.3287 18.7509 10.1725V9.68816C18.7509 9.43123 18.8497 9.18482 19.0255 9.00315C19.2013 8.82147 19.4397 8.71941 19.6884 8.71941C19.937 8.71941 20.1755 8.82147 20.3513 9.00315C20.5271 9.18482 20.6259 9.43123 20.6259 9.68816V10.1725C20.6259 10.8149 20.8728 11.4309 21.3123 11.8851C21.7519 12.3392 22.348 12.5944 22.9696 12.5944H23.4384C23.687 12.5944 23.9255 12.6965 24.1013 12.8781C24.2771 13.0598 24.3759 13.3062 24.3759 13.5632ZM7.03213 14.5319H6.56338C6.31474 14.5319 6.07628 14.4298 5.90047 14.2482C5.72465 14.0665 5.62588 13.8201 5.62588 13.5632C5.62588 13.3062 5.72465 13.0598 5.90047 12.8781C6.07628 12.6965 6.31474 12.5944 6.56338 12.5944H7.03213C7.65373 12.5944 8.24987 12.3392 8.68941 11.8851C9.12895 11.4309 9.37588 10.8149 9.37588 10.1725V9.68816C9.37588 9.43123 9.47465 9.18482 9.65047 9.00315C9.82628 8.82147 10.0647 8.71941 10.3134 8.71941C10.562 8.71941 10.8005 8.82147 10.9763 9.00315C11.1521 9.18482 11.2509 9.43123 11.2509 9.68816V10.1725C11.2509 11.3287 10.8064 12.4375 10.0152 13.2551C9.22407 14.0726 8.15101 14.5319 7.03213 14.5319Z" fill="#616161"/>
</svg>
