<svg width="32" height="31" viewBox="0 0 32 31" fill="none" xmlns="http://www.w3.org/2000/svg">
<g clip-path="url(#clip0_882_4006)">
<path d="M25.4638 26.4044C23.5052 24.8215 21.0621 22.6168 19.6958 21.002C21.1024 18.7155 22.1385 16.4234 22.7782 14.1825C23.7399 10.8116 23.4146 7.44918 21.8622 4.71336C20.5147 2.34043 18.0385 -0.203934 15.2392 0.0129612C11.276 0.319505 9.27852 4.58132 9.6148 12.0133C9.75119 15.0283 10.6615 18.0466 12.3217 20.9936C10.996 22.6246 8.87209 24.8692 7.35881 26.3911C7.03603 26.7161 7.03667 27.2412 7.3606 27.5646L10.4791 30.6831C10.6349 30.8392 10.8461 30.9266 11.0669 30.9266C11.0672 30.9266 11.0675 30.9266 11.0679 30.9266C11.289 30.9263 11.5004 30.8379 11.6564 30.6815C12.6222 29.71 14.6 27.6604 16.003 26.0353C17.0392 27.113 18.3477 28.2274 19.4387 29.157L19.9063 29.556C20.0072 29.6411 20.2268 29.8444 20.4615 30.0616C20.8729 30.4412 21.1537 30.699 21.3054 30.8191C21.4577 30.9403 21.6405 31 21.8226 31C22.0367 31 22.2493 30.9178 22.4107 30.7567L25.5291 27.6383C25.6957 27.4717 25.784 27.2422 25.7713 27.0067C25.7589 26.7713 25.6469 26.5525 25.4638 26.4044ZM21.7907 29.0261C21.7213 28.9618 21.6521 28.8985 21.5895 28.8397C21.3314 28.6017 21.0898 28.3793 20.9833 28.2896L20.5171 27.8918C19.2241 26.7904 17.6148 25.4192 16.6141 24.236C16.4563 24.0493 16.2238 23.9412 15.9794 23.9412C15.9767 23.9412 15.9741 23.9412 15.9715 23.9412C15.7241 23.9438 15.4906 24.0561 15.3345 24.2483C14.323 25.4933 12.5238 27.4213 11.0632 28.9159L9.12045 26.9729C10.2709 25.7959 12.599 23.3639 13.9829 21.5763C14.1917 21.3065 14.2146 20.9367 14.0404 20.6432C12.3379 17.7763 11.4083 14.8477 11.2766 11.938C10.8852 3.30981 13.6719 1.80165 15.3676 1.67063C15.4361 1.66525 15.504 1.66263 15.5718 1.66263C17.4002 1.66263 19.3221 3.60696 20.416 5.5342C21.7467 7.87856 22.0175 10.7879 21.1791 13.7264C20.5369 15.9788 19.4589 18.2964 17.9759 20.6155C17.7869 20.9103 17.8035 21.2921 18.0172 21.5698C19.2891 23.2244 21.7318 25.4656 23.7053 27.1115L21.7907 29.0261Z" fill="#616161"/>
<path d="M18.3894 7.5622C17.8348 6.47203 17.1441 5.56723 16.335 4.87268C16.2795 4.82511 16.2186 4.78355 16.1246 4.72868C15.9261 4.61307 15.6884 4.58417 15.4689 4.64958C15.2487 4.71474 15.0656 4.86827 14.9625 5.07353C14.9396 5.11944 14.9169 5.16426 14.8974 5.20321C14.8422 5.27271 14.7973 5.35271 14.7657 5.4412C14.4949 6.20328 14.2944 7.01555 14.1694 7.85647C13.9364 9.42186 13.9225 11.5777 14.1332 13.3496C14.1754 13.7044 14.3557 14.7215 14.6157 15.4331C14.8153 15.9782 15.0527 16.5481 15.3426 17.1761C15.4749 17.4631 15.7589 17.6508 16.0751 17.659C16.0827 17.6593 16.09 17.6593 16.0977 17.6593C16.4052 17.6593 16.6881 17.4891 16.8325 17.216C17.3296 16.2754 17.7443 15.3419 18.0657 14.4423C18.7995 12.3858 19.5002 9.74503 18.3894 7.5622ZM16.4996 13.8834C16.3939 14.1794 16.2771 14.4795 16.1491 14.7834C15.966 14.2451 15.82 13.4554 15.7837 13.1531C15.5922 11.5409 15.6042 9.51074 15.8137 8.10124C15.8718 7.71157 15.948 7.32925 16.0421 6.95781C16.3606 7.35656 16.6503 7.81062 16.9078 8.31603C17.7302 9.93334 17.1217 12.1407 16.4996 13.8834Z" fill="#616161"/>
</g>
<defs>
<clipPath id="clip0_882_4006">
<rect width="31" height="30.9999" fill="white" transform="translate(0.945312)"/>
</clipPath>
</defs>
</svg>
