<svg width="18" height="18" viewBox="0 0 18 18" fill="none" xmlns="http://www.w3.org/2000/svg">
<path d="M15.75 3.51562H2.25C2.13811 3.51562 2.03081 3.56007 1.95169 3.63919C1.87257 3.71831 1.82812 3.82561 1.82812 3.9375V13.5C1.82812 13.7611 1.93184 14.0115 2.11644 14.1961C2.30105 14.3807 2.55143 14.4844 2.8125 14.4844H15.1875C15.4486 14.4844 15.699 14.3807 15.8836 14.1961C16.0682 14.0115 16.1719 13.7611 16.1719 13.5V3.9375C16.1719 3.82561 16.1274 3.71831 16.0483 3.63919C15.9692 3.56007 15.8619 3.51562 15.75 3.51562ZM9 9.55266L3.33422 4.35938H14.6658L9 9.55266ZM7.14867 9L2.67188 13.1034V4.89656L7.14867 9ZM7.77305 9.57234L8.71875 10.4358C8.79652 10.5069 8.89811 10.5464 9.00352 10.5464C9.10892 10.5464 9.21051 10.5069 9.28828 10.4358L10.2305 9.57234L14.6658 13.6406H3.33492L7.77305 9.57234ZM10.8513 9L15.3281 4.89656V13.1034L10.8513 9Z" fill="white"/>
</svg>
