<svg width="31" height="31" viewBox="0 0 31 31" fill="none" xmlns="http://www.w3.org/2000/svg">
<path d="M24.2188 4.84375C23.9618 4.84375 23.7154 4.94581 23.5337 5.12749C23.3521 5.30917 23.25 5.55557 23.25 5.8125C23.25 6.06943 23.3521 6.31583 23.5337 6.49751C23.7154 6.67919 23.9618 6.78125 24.2188 6.78125C24.7326 6.78125 25.2254 6.98538 25.5888 7.34873C25.9521 7.71208 26.1562 8.20489 26.1562 8.71875V15.7519C25.4733 15.1886 24.6607 14.8044 23.792 14.634C22.9233 14.4635 22.0258 14.5122 21.1806 14.7757C20.3354 15.0392 19.5692 15.5091 18.9512 16.1429C18.3332 16.7768 17.8829 17.5547 17.6409 18.4063H13.3591C13.1171 17.5547 12.6668 16.7768 12.0488 16.1429C11.4308 15.5091 10.6646 15.0392 9.81941 14.7757C8.97423 14.5122 8.07673 14.4635 7.20801 14.634C6.33929 14.8044 5.52673 15.1886 4.84375 15.7519V8.71875C4.84375 8.20489 5.04788 7.71208 5.41123 7.34873C5.77458 6.98538 6.26739 6.78125 6.78125 6.78125C7.03818 6.78125 7.28458 6.67919 7.46626 6.49751C7.64794 6.31583 7.75 6.06943 7.75 5.8125C7.75 5.55557 7.64794 5.30917 7.46626 5.12749C7.28458 4.94581 7.03818 4.84375 6.78125 4.84375C5.75354 4.84375 4.76791 5.25201 4.04121 5.97871C3.31451 6.70541 2.90625 7.69104 2.90625 8.71875V19.8594C2.90886 21.2288 3.4386 22.5446 4.38555 23.5337C5.3325 24.5229 6.62395 25.1095 7.9919 25.1718C9.35986 25.2342 10.6993 24.7674 11.7323 23.8684C12.7652 22.9694 13.4124 21.7072 13.5395 20.3438H17.4605C17.5876 21.7072 18.2348 22.9694 19.2677 23.8684C20.3007 24.7674 21.6401 25.2342 23.0081 25.1718C24.3761 25.1095 25.6675 24.5229 26.6145 23.5337C27.5614 22.5446 28.0911 21.2288 28.0938 19.8594V8.71875C28.0938 7.69104 27.6855 6.70541 26.9588 5.97871C26.2321 5.25201 25.2465 4.84375 24.2188 4.84375ZM8.23438 23.25C7.56377 23.25 6.90823 23.0511 6.35064 22.6786C5.79306 22.306 5.35847 21.7765 5.10185 21.1569C4.84522 20.5374 4.77807 19.8556 4.9089 19.1979C5.03973 18.5402 5.36265 17.936 5.83684 17.4618C6.31103 16.9877 6.91518 16.6647 7.5729 16.5339C8.23061 16.4031 8.91235 16.4702 9.53191 16.7268C10.1515 16.9835 10.681 17.4181 11.0536 17.9756C11.4261 18.5332 11.625 19.1888 11.625 19.8594C11.625 20.7586 11.2678 21.621 10.6319 22.2569C9.99604 22.8928 9.13362 23.25 8.23438 23.25ZM22.7656 23.25C22.095 23.25 21.4395 23.0511 20.8819 22.6786C20.3243 22.306 19.8897 21.7765 19.6331 21.1569C19.3765 20.5374 19.3093 19.8556 19.4401 19.1979C19.571 18.5402 19.8939 17.936 20.3681 17.4618C20.8423 16.9877 21.4464 16.6647 22.1041 16.5339C22.7619 16.4031 23.4436 16.4702 24.0632 16.7268C24.6827 16.9835 25.2123 17.4181 25.5848 17.9756C25.9574 18.5332 26.1562 19.1888 26.1562 19.8594C26.1562 20.7586 25.799 21.621 25.1632 22.2569C24.5273 22.8928 23.6649 23.25 22.7656 23.25Z" fill="#616161"/>
</svg>
