<svg width="32" height="31" viewBox="0 0 32 31" fill="none" xmlns="http://www.w3.org/2000/svg">
<path d="M17.3845 0.726562C12.4362 0.726562 7.42578 4.46981 7.42578 11.625C7.42578 12.2934 7.96828 12.8359 8.63672 12.8359C9.30516 12.8359 9.84766 12.2934 9.84766 11.625C9.84766 5.80087 13.7546 3.14844 17.3845 3.14844C21.0144 3.14844 24.9214 5.80087 24.9214 11.625C24.9262 11.7451 24.9292 11.8866 24.9292 12.028C24.9292 12.7226 24.8642 13.4017 24.7412 14.0604L24.7519 13.9926C24.5184 15.0699 24.1387 16.0231 23.6262 16.8902L23.6504 16.8456C23.3733 17.3232 23.0856 17.7339 22.7679 18.1195L22.7805 18.104C22.5983 18.3239 22.3997 18.5225 22.2012 18.7192C21.835 19.0669 21.5037 19.4428 21.2072 19.8458L21.1908 19.8691C20.7752 20.4803 20.3683 21.1856 20.0127 21.9209L19.9682 22.0226C19.7105 22.4973 19.4644 23.0582 19.2649 23.6404L19.2416 23.7198C19.1467 24.0376 19.0789 24.4086 19.0517 24.7903L19.0508 24.8078C19.0382 25.0209 19.0062 25.2204 18.9568 25.4123L18.9617 25.3909C18.8812 25.6641 18.7902 25.8966 18.6827 26.1194L18.6952 26.0913C18.4812 26.505 18.206 26.8567 17.8767 27.1492L17.8728 27.1521C17.1627 27.7547 16.2676 28.1596 15.2843 28.272L15.262 28.2739C15.0343 28.3059 14.7718 28.3243 14.5054 28.3243C13.713 28.3243 12.9583 28.1625 12.2734 27.87L12.3102 27.8845C11.4451 27.5251 10.7534 26.8944 10.3252 26.1001L10.3146 26.0788C10.0569 25.5518 9.90578 24.9327 9.90578 24.2778C9.90578 24.2575 9.90578 24.2362 9.90578 24.2158V24.2188C9.90578 23.5503 9.36328 23.0078 8.69484 23.0078C8.02641 23.0078 7.48391 23.5503 7.48391 24.2188C7.48391 24.2362 7.48391 24.2556 7.48391 24.2759C7.48391 25.327 7.72997 26.3209 8.16784 27.2025L8.15041 27.1638C8.84791 28.489 9.96003 29.5168 11.3105 30.0923L11.3521 30.1078C12.2695 30.5098 13.339 30.7433 14.4628 30.7433C14.4734 30.7433 14.4841 30.7433 14.4957 30.7433H14.4938C14.8735 30.7433 15.2475 30.7181 15.6137 30.6706L15.5701 30.6755C17.0823 30.4992 18.425 29.8801 19.4925 28.9521L19.4838 28.9598C20.0399 28.4638 20.5 27.8748 20.842 27.2151L20.8575 27.1812C21.0077 26.8818 21.1491 26.5273 21.2615 26.1592L21.2741 26.1107C21.3671 25.7978 21.4339 25.4336 21.4601 25.0577L21.461 25.0412C21.4736 24.8223 21.5075 24.6179 21.5589 24.4212L21.554 24.4435C21.7352 23.9184 21.9318 23.4757 22.1595 23.0524L22.1353 23.1018C22.4782 22.382 22.826 21.7756 23.2135 21.1982L23.1796 21.2515C23.4072 20.9473 23.6485 20.6789 23.91 20.4338L23.9129 20.4309C24.1667 20.1791 24.4177 19.9243 24.6511 19.6424C25.8272 18.2125 26.6894 16.4784 27.1059 14.5778L27.1205 14.4973C27.2668 13.7611 27.351 12.9144 27.351 12.0483C27.351 11.8992 27.3481 11.7509 27.3433 11.6037L27.3442 11.625C27.3442 4.46981 22.3339 0.726562 17.3855 0.726562H17.3845ZM17.0803 15.8391C14.9229 16.1859 13.2954 18.0343 13.2954 20.2624C13.2954 20.2914 13.2954 20.3195 13.2964 20.3486V20.3447C13.2964 21.049 13.0116 21.5024 12.5698 21.5024C12.1281 21.5024 11.8433 21.048 11.8433 20.3447C11.8433 19.6763 11.3008 19.1338 10.6323 19.1338C9.96391 19.1338 9.42141 19.6763 9.42141 20.3447C9.41172 20.4397 9.40591 20.5501 9.40591 20.6615C9.40591 22.4295 10.8106 23.8681 12.565 23.9242H12.5698C14.3291 23.8681 15.7338 22.4295 15.7338 20.6615C15.7338 20.5501 15.728 20.4397 15.7173 20.3312L15.7183 20.3447C15.7183 20.3341 15.7183 20.3215 15.7183 20.3089C15.7183 19.2568 16.4894 18.3859 17.4979 18.229L17.5095 18.227C17.8815 18.2028 18.2254 18.1021 18.5335 17.9422L18.5189 17.949C18.8173 17.7727 19.0663 17.546 19.2629 17.2786L19.2678 17.2718C20.0166 16.3535 20.47 15.1687 20.47 13.8783C20.47 12.7081 20.097 11.624 19.4625 10.7405L19.4732 10.757C18.5063 9.517 17.0125 8.7265 15.3337 8.7265C15.2707 8.7265 15.2078 8.72747 15.1458 8.72941H15.1545C14.7544 8.75266 14.3785 8.8195 14.021 8.92606L14.0569 8.91734C14.6953 7.66959 15.9711 6.83066 17.4436 6.83066C18.4928 6.83066 19.4422 7.25691 20.128 7.94472C20.9292 8.84953 21.4174 10.0469 21.4174 11.3586C21.4174 11.4526 21.4145 11.5465 21.4097 11.6395L21.4107 11.6269C21.4107 12.2954 21.9532 12.8379 22.6216 12.8379C23.29 12.8379 23.8325 12.2954 23.8325 11.6269C23.8509 11.44 23.8616 11.223 23.8616 11.0031C23.8616 7.409 20.9989 4.48338 17.4291 4.38263H17.4194C13.8408 4.48434 10.9782 7.409 10.9782 11.0031C10.9782 11.223 10.9888 11.44 11.0102 11.6541L11.0082 11.6269V11.6279C11.0082 12.2963 11.5497 12.8379 12.2182 12.8379C12.7132 12.8379 13.1385 12.5414 13.3255 12.1152L13.3284 12.1074C13.3448 12.091 13.3662 12.0852 13.3817 12.0677C13.8748 11.502 14.5965 11.1464 15.4005 11.1464C16.2714 11.1464 17.0455 11.563 17.5337 12.2082L17.5386 12.215C17.8621 12.6945 18.0559 13.2864 18.0559 13.9229C18.0559 14.631 17.8166 15.284 17.4146 15.8042L17.4194 15.7974L17.0803 15.8391Z" fill="#616161"/>
</svg>
