<svg width="295" height="216" viewBox="0 0 295 216" fill="none" xmlns="http://www.w3.org/2000/svg">
<rect width="295" height="216" fill="white"/>
<circle cx="147.5" cy="107.5" r="89.5" fill="#3CD0CE"/>
<path d="M178.114 93.5803L140.614 131.08C140.287 131.408 139.899 131.668 139.471 131.846C139.044 132.023 138.586 132.114 138.123 132.114C137.661 132.114 137.202 132.023 136.775 131.846C136.348 131.668 135.96 131.408 135.633 131.08L119.227 114.674C118.9 114.347 118.64 113.959 118.463 113.532C118.286 113.104 118.195 112.646 118.195 112.184C118.195 111.721 118.286 111.263 118.463 110.836C118.64 110.409 118.9 110.021 119.227 109.694C119.554 109.367 119.942 109.107 120.369 108.93C120.797 108.753 121.255 108.662 121.717 108.662C122.18 108.662 122.637 108.753 123.065 108.93C123.492 109.107 123.88 109.367 124.207 109.694L138.126 123.613L173.139 88.6057C173.799 87.9453 174.695 87.5742 175.629 87.5742C176.563 87.5742 177.459 87.9453 178.119 88.6057C178.78 89.2662 179.151 90.1619 179.151 91.0959C179.151 92.03 178.78 92.9257 178.119 93.5862L178.114 93.5803Z" fill="white"/>
</svg>
