<svg width="105" height="21" viewBox="0 0 105 21" fill="none" xmlns="http://www.w3.org/2000/svg">
<path d="M19.9167 19.8935L14.3332 0.338618C14.3007 0.222799 14.1942 0.144043 14.0739 0.144043H6.24465C6.12427 0.144043 6.01787 0.222799 5.98546 0.338618L0.401791 19.8935C0.350862 20.0649 0.480526 20.2363 0.661092 20.2363H4.14741C4.26779 20.2363 4.37419 20.1576 4.4066 20.0417L6.24465 13.3891H14.009L15.8563 20.0417C15.8887 20.1576 15.9952 20.2363 16.1156 20.2363H19.6575C19.8381 20.2363 19.963 20.0649 19.9167 19.8935ZM7.25868 9.71069L8.83279 4.0124C8.8652 3.89658 8.97172 3.81782 9.09209 3.81782H11.1524C11.2727 3.81782 11.3793 3.89658 11.4117 4.0124L12.9951 9.71069H7.26331H7.25868Z" fill="#032651"/>
<path d="M22.9458 13.204L19.1401 0.491739C19.0891 0.320327 19.2188 0.144282 19.3994 0.144282H22.9366C23.0569 0.144282 23.1634 0.223038 23.1959 0.338857L25.9599 10.1881C25.9923 10.3039 26.0988 10.3827 26.2192 10.3827H26.6266C26.7423 10.3827 26.8442 10.3086 26.8812 10.1974L30.0851 0.32496C30.1221 0.213773 30.224 0.139648 30.3397 0.139648H36.2336C36.3493 0.139648 36.4512 0.213773 36.4882 0.32496L39.6921 10.1974C39.7291 10.3086 39.831 10.3827 39.9467 10.3827H40.3819C40.5023 10.3827 40.6088 10.3039 40.6412 10.1881L43.3776 0.338857C43.41 0.223038 43.5164 0.144282 43.6367 0.144282H47.0629C47.2435 0.144282 47.373 0.315693 47.3221 0.487105L43.5442 13.1994C43.5118 13.3152 43.4053 13.3893 43.2849 13.3893H37.1688C37.0531 13.3893 36.9512 13.3152 36.9141 13.204L33.7659 3.4706C33.7289 3.35942 33.627 3.28529 33.5113 3.28529H32.9834C32.8676 3.28529 32.7659 3.35942 32.7288 3.4706L29.5805 13.204C29.5434 13.3152 29.4416 13.3893 29.3258 13.3893H23.2098C23.0894 13.3893 22.9875 13.3106 22.9505 13.1994L22.9458 13.204Z" fill="#032651"/>
<path d="M66.0457 19.8935L60.4621 0.338618C60.4297 0.222799 60.3231 0.144043 60.2028 0.144043H52.3737C52.2533 0.144043 52.1468 0.222799 52.1144 0.338618L46.5307 19.8935C46.4798 20.0649 46.6094 20.2363 46.79 20.2363H50.2763C50.3967 20.2363 50.5032 20.1576 50.5356 20.0417L52.3644 13.4169H60.1473L61.9899 20.0417C62.0224 20.1576 62.1289 20.2363 62.2492 20.2363H65.7911C65.9716 20.2363 66.0967 20.0649 66.0504 19.8935H66.0457ZM53.3783 9.73849L54.9572 4.0124C54.9896 3.89658 55.096 3.81782 55.2164 3.81782H57.2766C57.397 3.81782 57.5035 3.89658 57.5359 4.0124L59.1286 9.73849H53.3829H53.3783Z" fill="#032651"/>
<path d="M84.226 16.7713V19.9632C84.226 20.1115 84.1056 20.2319 83.9574 20.2319H69.7529C69.6048 20.2319 69.4844 20.1115 69.4844 19.9632V0.408349C69.4844 0.260101 69.6048 0.139648 69.7529 0.139648H83.8138C83.962 0.139648 84.0824 0.260101 84.0824 0.408349V3.60032C84.0824 3.74857 83.962 3.86902 83.8138 3.86902H73.767C73.6189 3.86902 73.4984 3.98947 73.4984 4.13772V8.34427H82.2351C82.3833 8.34427 82.5037 8.46472 82.5037 8.61297V11.7493C82.5037 11.8976 82.3833 12.018 82.2351 12.018H73.4984V16.2292C73.4984 16.3775 73.6189 16.4979 73.767 16.4979H83.9574C84.1056 16.4979 84.226 16.6184 84.226 16.7666V16.7713Z" fill="#032651"/>
<path d="M104.523 19.8147L99.8145 12.8517C100.074 12.7637 100.328 12.6571 100.574 12.5413C101.75 11.9854 102.657 11.2117 103.301 10.2157C103.94 9.21962 104.264 8.07069 104.264 6.77352C104.264 5.47635 103.949 4.31816 103.315 3.31285C102.685 2.30754 101.796 1.52924 100.648 0.973307C99.4997 0.417376 98.1895 0.144043 96.7172 0.144043H88.3231C88.175 0.144043 88.0547 0.264496 88.0547 0.412744V19.9676C88.0547 20.1159 88.175 20.2363 88.3231 20.2363H91.8048C91.953 20.2363 92.0734 20.1159 92.0734 19.9676V13.3752H95.8144L100.171 20.1112C100.217 20.1854 100.305 20.2317 100.398 20.2317H104.306C104.523 20.2317 104.648 19.9908 104.528 19.8101L104.523 19.8147ZM92.0131 4.02629C92.0131 3.87805 92.1336 3.7576 92.2817 3.7576H96.5736C97.7404 3.7576 98.6293 4.01703 99.2404 4.53127C99.8516 5.0455 100.157 5.79601 100.157 6.76889C100.157 7.43601 100.018 7.99657 99.7405 8.44595C99.4627 8.89532 99.0552 9.23352 98.5228 9.46516C97.9857 9.69679 97.3376 9.80798 96.5736 9.80798H92.0131V4.02166V4.02629Z" fill="#032651"/>
</svg>
