<svg width="101" height="22" viewBox="0 0 101 22" fill="none" xmlns="http://www.w3.org/2000/svg">
<path d="M50.4112 17.7421C68.6566 17.7421 83.4474 14.6872 83.4474 10.9187C83.4474 7.15018 68.6566 4.09521 50.4112 4.09521C32.1658 4.09521 17.375 7.15018 17.375 10.9187C17.375 14.6872 32.1658 17.7421 50.4112 17.7421Z" stroke="white" stroke-miterlimit="10"/>
<path d="M20.7578 5.84473C27.8357 4.07549 38.5393 2.94824 50.5195 2.94824C68.7806 2.94824 84.0807 5.56859 88.0879 9.08758" stroke="white" stroke-miterlimit="10"/>
<path d="M89.0918 11.1836C88.5819 14.4069 78.8074 17.1459 65.0898 18.3012" stroke="white" stroke-miterlimit="10"/>
<path d="M60.2058 18.6358C57.1126 18.8012 53.8682 18.8885 50.5257 18.8885C29.2128 18.8885 11.9375 15.3204 11.9375 10.9183C11.9375 9.55474 13.5955 8.27148 16.515 7.14893" stroke="white" stroke-miterlimit="10"/>
<path d="M75.4578 8.56334C77.0403 9.28102 77.9241 10.0783 77.9241 10.9184C77.9241 14.056 65.6115 16.599 50.421 16.599C35.2305 16.599 22.918 14.056 22.918 10.9184C22.918 7.7809 35.2305 5.23779 50.421 5.23779C59.4817 5.23779 67.5189 6.1427 72.5308 7.53907" stroke="white" stroke-miterlimit="10"/>
<path d="M50.4168 15.4704C62.5881 15.4704 72.4549 13.4325 72.4549 10.9185C72.4549 8.40463 62.5881 6.3667 50.4168 6.3667C38.2456 6.3667 28.3789 8.40463 28.3789 10.9185C28.3789 13.4325 38.2456 15.4704 50.4168 15.4704Z" stroke="white" stroke-miterlimit="10"/>
<path d="M39.3402 13.3594C36.1865 12.7494 34.2188 11.8811 34.2188 10.9185C34.2188 9.07122 41.4665 7.57422 50.4101 7.57422C59.3537 7.57422 66.6016 9.07122 66.6016 10.9185C66.6016 12.7657 59.3537 14.2627 50.4101 14.2627C47.3848 14.2627 44.556 14.0911 42.1313 13.7931" stroke="white" stroke-miterlimit="10"/>
<path d="M11.467 15.2127C8.15847 13.9325 6.28516 12.4699 6.28516 10.9175C6.28516 5.87107 26.091 1.78027 50.5235 1.78027C74.956 1.78027 94.7619 5.87107 94.7619 10.9175C94.7619 15.9639 74.956 20.0547 50.5235 20.0547C36.7077 20.0547 24.3725 18.7465 16.2598 16.698" stroke="white" stroke-miterlimit="10"/>
<path d="M98.0744 13.9148C95.7781 15.475 91.6424 16.9439 85.6712 18.1772C66.2581 22.1869 34.7893 22.1869 15.3762 18.1772C-4.03686 14.1675 -4.03686 7.66781 15.3762 3.65813C34.7893 -0.35154 66.2581 -0.35154 85.6712 3.65813C96.6467 5.92508 101.417 8.98849 99.9817 11.9482" stroke="white" stroke-miterlimit="10"/>
</svg>
