<svg width="105" height="21" viewBox="0 0 105 21" fill="none" xmlns="http://www.w3.org/2000/svg">
<path d="M19.9148 19.8935L14.3312 0.338618C14.2988 0.222799 14.1923 0.144043 14.0719 0.144043H6.24269C6.12232 0.144043 6.01592 0.222799 5.98351 0.338618L0.399838 19.8935C0.348909 20.0649 0.478573 20.2363 0.659139 20.2363H4.14546C4.26583 20.2363 4.37223 20.1576 4.40464 20.0417L6.24269 13.3891H14.007L15.8543 20.0417C15.8867 20.1576 15.9933 20.2363 16.1136 20.2363H19.6556C19.8361 20.2363 19.9611 20.0649 19.9148 19.8935ZM7.25672 9.71069L8.83084 4.0124C8.86325 3.89658 8.96976 3.81782 9.09014 3.81782H11.1504C11.2708 3.81782 11.3773 3.89658 11.4097 4.0124L12.9931 9.71069H7.26136H7.25672Z" fill="#032651"/>
<path d="M22.9439 13.204L19.1381 0.491739C19.0872 0.320327 19.2169 0.144282 19.3974 0.144282H22.9346C23.055 0.144282 23.1615 0.223038 23.1939 0.338857L25.9579 10.1881C25.9903 10.3039 26.0969 10.3827 26.2172 10.3827H26.6246C26.7404 10.3827 26.8422 10.3086 26.8793 10.1974L30.0831 0.32496C30.1202 0.213773 30.222 0.139648 30.3378 0.139648H36.2316C36.3474 0.139648 36.4492 0.213773 36.4863 0.32496L39.6901 10.1974C39.7272 10.3086 39.829 10.3827 39.9448 10.3827H40.38C40.5004 10.3827 40.6069 10.3039 40.6393 10.1881L43.3756 0.338857C43.408 0.223038 43.5144 0.144282 43.6348 0.144282H47.061C47.2415 0.144282 47.3711 0.315693 47.3202 0.487105L43.5422 13.1994C43.5098 13.3152 43.4033 13.3893 43.2829 13.3893H37.1669C37.0511 13.3893 36.9492 13.3152 36.9122 13.204L33.764 3.4706C33.7269 3.35942 33.625 3.28529 33.5093 3.28529H32.9814C32.8657 3.28529 32.7639 3.35942 32.7269 3.4706L29.5785 13.204C29.5415 13.3152 29.4396 13.3893 29.3239 13.3893H23.2078C23.0874 13.3893 22.9855 13.3106 22.9485 13.1994L22.9439 13.204Z" fill="#032651"/>
<path d="M66.0438 19.8935L60.4601 0.338618C60.4277 0.222799 60.3212 0.144043 60.2008 0.144043H52.3717C52.2513 0.144043 52.1448 0.222799 52.1124 0.338618L46.5287 19.8935C46.4778 20.0649 46.6075 20.2363 46.788 20.2363H50.2744C50.3947 20.2363 50.5013 20.1576 50.5337 20.0417L52.3624 13.4169H60.1453L61.988 20.0417C62.0204 20.1576 62.1269 20.2363 62.2473 20.2363H65.7891C65.9697 20.2363 66.0947 20.0649 66.0484 19.8935H66.0438ZM53.3764 9.73849L54.9552 4.0124C54.9876 3.89658 55.094 3.81782 55.2144 3.81782H57.2747C57.3951 3.81782 57.5016 3.89658 57.534 4.0124L59.1266 9.73849H53.381H53.3764Z" fill="#032651"/>
<path d="M84.224 16.7713V19.9632C84.224 20.1115 84.1036 20.2319 83.9554 20.2319H69.751C69.6028 20.2319 69.4824 20.1115 69.4824 19.9632V0.408349C69.4824 0.260101 69.6028 0.139648 69.751 0.139648H83.8119C83.96 0.139648 84.0805 0.260101 84.0805 0.408349V3.60032C84.0805 3.74857 83.96 3.86902 83.8119 3.86902H73.7651C73.6169 3.86902 73.4965 3.98947 73.4965 4.13772V8.34427H82.2331C82.3813 8.34427 82.5017 8.46472 82.5017 8.61297V11.7493C82.5017 11.8976 82.3813 12.018 82.2331 12.018H73.4965V16.2292C73.4965 16.3775 73.6169 16.4979 73.7651 16.4979H83.9554C84.1036 16.4979 84.224 16.6184 84.224 16.7666V16.7713Z" fill="#032651"/>
<path d="M104.521 19.8147L99.8126 12.8517C100.072 12.7637 100.326 12.6571 100.572 12.5413C101.748 11.9854 102.655 11.2117 103.299 10.2157C103.938 9.21962 104.262 8.07069 104.262 6.77352C104.262 5.47635 103.947 4.31816 103.313 3.31285C102.683 2.30754 101.794 1.52924 100.646 0.973307C99.4978 0.417376 98.1875 0.144043 96.7152 0.144043H88.3212C88.173 0.144043 88.0527 0.264496 88.0527 0.412744V19.9676C88.0527 20.1159 88.173 20.2363 88.3212 20.2363H91.8029C91.951 20.2363 92.0714 20.1159 92.0714 19.9676V13.3752H95.8124L100.169 20.1112C100.215 20.1854 100.303 20.2317 100.396 20.2317H104.304C104.521 20.2317 104.646 19.9908 104.526 19.8101L104.521 19.8147ZM92.0112 4.02629C92.0112 3.87805 92.1316 3.7576 92.2798 3.7576H96.5717C97.7384 3.7576 98.6273 4.01703 99.2385 4.53127C99.8496 5.0455 100.155 5.79601 100.155 6.76889C100.155 7.43601 100.016 7.99657 99.7386 8.44595C99.4608 8.89532 99.0533 9.23352 98.5208 9.46516C97.9838 9.69679 97.3356 9.80798 96.5717 9.80798H92.0112V4.02166V4.02629Z" fill="#032651"/>
</svg>
