<svg width="80" height="18" viewBox="0 0 80 18" fill="none" xmlns="http://www.w3.org/2000/svg">
<path d="M39.7964 14.0181C53.9872 14.0181 65.4912 11.642 65.4912 8.71095C65.4912 5.7799 53.9872 3.40381 39.7964 3.40381C25.6055 3.40381 14.1016 5.7799 14.1016 8.71095C14.1016 11.642 25.6055 14.0181 39.7964 14.0181Z" stroke="white" stroke-miterlimit="10"/>
<path d="M16.7305 4.76455C22.2355 3.38846 30.5605 2.51172 39.8784 2.51172C54.0815 2.51172 65.9816 4.54976 69.0983 7.28676" stroke="white" stroke-miterlimit="10"/>
<path d="M69.8791 8.91748C69.4826 11.4245 61.8802 13.5548 51.2109 14.4534" stroke="white" stroke-miterlimit="10"/>
<path d="M47.4131 14.7135C45.0072 14.8422 42.4838 14.9101 39.8841 14.9101C23.3075 14.9101 9.87109 12.1349 9.87109 8.71106C9.87109 7.65048 11.1606 6.65239 13.4314 5.7793" stroke="white" stroke-miterlimit="10"/>
<path d="M59.2745 6.8795C60.5053 7.4377 61.1927 8.05779 61.1927 8.71124C61.1927 11.1515 51.6163 13.1295 39.8014 13.1295C27.9865 13.1295 18.4102 11.1515 18.4102 8.71124C18.4102 6.27094 27.9865 4.29297 39.8014 4.29297C46.8486 4.29297 53.0997 4.99679 56.9979 6.08285" stroke="white" stroke-miterlimit="10"/>
<path d="M39.8008 12.2511C49.2673 12.2511 56.9414 10.666 56.9414 8.71073C56.9414 6.75547 49.2673 5.17041 39.8008 5.17041C30.3342 5.17041 22.6602 6.75547 22.6602 8.71073C22.6602 10.666 30.3342 12.2511 39.8008 12.2511Z" stroke="white" stroke-miterlimit="10"/>
<path d="M31.1865 10.6094C28.7336 10.135 27.2031 9.45967 27.2031 8.71096C27.2031 7.2742 32.8403 6.10986 39.7964 6.10986C46.7525 6.10986 52.3897 7.2742 52.3897 8.71096C52.3897 10.1477 46.7525 11.3121 39.7964 11.3121C37.4434 11.3121 35.2432 11.1786 33.3573 10.9468" stroke="white" stroke-miterlimit="10"/>
<path d="M9.50298 12.0509C6.92968 11.0553 5.47266 9.91765 5.47266 8.71024C5.47266 4.78524 20.8772 1.60352 39.8802 1.60352C58.8833 1.60352 74.2879 4.78524 74.2879 8.71024C74.2879 12.6352 58.8833 15.817 39.8802 15.817C29.1347 15.817 19.5406 14.7995 13.2307 13.2062" stroke="white" stroke-miterlimit="10"/>
<path d="M76.8678 11.0415C75.0817 12.255 71.8651 13.3974 67.2208 14.3567C52.1218 17.4753 27.646 17.4753 12.5469 14.3567C-2.55211 11.238 -2.55211 6.18271 12.5469 3.06407C27.646 -0.0545611 52.1218 -0.0545611 67.2208 3.06407C75.7574 4.82726 79.4675 7.2099 78.3512 9.51187" stroke="white" stroke-miterlimit="10"/>
</svg>
