<svg width="68" height="16" viewBox="0 0 68 16" fill="none" xmlns="http://www.w3.org/2000/svg">
<path d="M34.071 12.4519C46.2346 12.4519 56.0951 10.4153 56.0951 7.90298C56.0951 5.39065 46.2346 3.354 34.071 3.354C21.9074 3.354 12.0469 5.39065 12.0469 7.90298C12.0469 10.4153 21.9074 12.4519 34.071 12.4519Z" stroke="white" stroke-miterlimit="10"/>
<path d="M14.3008 4.52035C19.0193 3.34085 26.1551 2.58936 34.1419 2.58936C46.316 2.58936 56.516 4.33625 59.1875 6.68225" stroke="white" stroke-miterlimit="10"/>
<path d="M59.8568 8.07959C59.5169 10.2285 53.0005 12.0544 43.8555 12.8246" stroke="white" stroke-miterlimit="10"/>
<path d="M40.6007 13.0476C38.5386 13.1578 36.3757 13.2161 34.1473 13.2161C19.9388 13.2161 8.42188 10.8373 8.42188 7.90259C8.42188 6.99352 9.5272 6.13802 11.4735 5.38965" stroke="white" stroke-miterlimit="10"/>
<path d="M50.7649 6.33275C51.8199 6.81121 52.4091 7.34271 52.4091 7.90281C52.4091 9.9945 44.2007 11.6899 34.0736 11.6899C23.9466 11.6899 15.7383 9.9945 15.7383 7.90281C15.7383 5.81113 23.9466 4.11572 34.0736 4.11572C40.1141 4.11572 45.4722 4.71899 48.8135 5.6499" stroke="white" stroke-miterlimit="10"/>
<path d="M34.0748 10.9373C42.1889 10.9373 48.7668 9.57867 48.7668 7.90273C48.7668 6.22679 42.1889 4.86816 34.0748 4.86816C25.9606 4.86816 19.3828 6.22679 19.3828 7.90273C19.3828 9.57867 25.9606 10.9373 34.0748 10.9373Z" stroke="white" stroke-miterlimit="10"/>
<path d="M26.6916 9.53012C24.5892 9.12344 23.2773 8.54461 23.2773 7.90285C23.2773 6.67134 28.1092 5.67334 34.0716 5.67334C40.034 5.67334 44.8659 6.67134 44.8659 7.90285C44.8659 9.13436 40.034 10.1324 34.0716 10.1324C32.0547 10.1324 30.1688 10.0179 28.5523 9.81928" stroke="white" stroke-miterlimit="10"/>
<path d="M8.103 10.7655C5.89731 9.91206 4.64844 8.93694 4.64844 7.90202C4.64844 4.53774 17.8523 1.81055 34.1407 1.81055C50.429 1.81055 63.6329 4.53774 63.6329 7.90202C63.6329 11.2663 50.429 13.9935 34.1407 13.9935C24.9302 13.9935 16.7067 13.1214 11.2982 11.7557" stroke="white" stroke-miterlimit="10"/>
<path d="M65.8465 9.90023C64.3156 10.9404 61.5585 11.9196 57.5777 12.7418C44.6356 15.4149 23.6564 15.4149 10.7143 12.7418C-2.2277 10.0687 -2.2277 5.73557 10.7143 3.06245C23.6564 0.389338 44.6356 0.389338 57.5777 3.06245C64.8947 4.57375 68.0748 6.61602 67.118 8.58914" stroke="white" stroke-miterlimit="10"/>
</svg>
