<svg width="32" height="31" viewBox="0 0 32 31" fill="none" xmlns="http://www.w3.org/2000/svg">
<path d="M24.2566 20.764C25.4816 19.7349 26.4603 18.4442 27.1204 16.9868C27.7806 15.5295 28.1054 13.9426 28.0711 12.3431C27.95 6.8079 23.5167 2.24388 17.9912 1.95325C16.5655 1.87565 15.1388 2.08534 13.7958 2.56987C12.4527 3.0544 11.2207 3.80389 10.173 4.77382C9.12521 5.74375 8.28305 6.91435 7.69651 8.21608C7.10997 9.51782 6.791 10.9242 6.75855 12.3516L4.04 17.5804C4.0291 17.6022 4.0182 17.624 4.00851 17.6458C3.81361 18.1001 3.79972 18.6117 3.96969 19.0759C4.13965 19.5401 4.48061 19.9217 4.92277 20.1427L4.95305 20.1561L7.7273 21.4263V25.1875C7.7273 25.7014 7.93143 26.1942 8.29478 26.5575C8.65814 26.9209 9.15095 27.125 9.6648 27.125H15.4773C15.7342 27.125 15.9806 27.0229 16.1623 26.8413C16.344 26.6596 16.4461 26.4132 16.4461 26.1563C16.4461 25.8993 16.344 25.6529 16.1623 25.4713C15.9806 25.2896 15.7342 25.1875 15.4773 25.1875H9.6648V20.8051C9.66494 20.6194 9.61171 20.4376 9.51145 20.2813C9.4112 20.125 9.26813 20.0009 9.0993 19.9236L5.7898 18.4063L8.58344 13.037C8.65625 12.9005 8.69489 12.7484 8.69605 12.5938C8.69577 10.6179 9.36661 8.70058 10.5987 7.1559C11.8307 5.61123 13.5509 4.53084 15.4773 4.09177V5.97962C14.8309 6.20814 14.2862 6.65781 13.9393 7.24915C13.5924 7.84048 13.4657 8.53541 13.5817 9.21111C13.6976 9.88681 14.0487 10.4998 14.5728 10.9417C15.097 11.3835 15.7605 11.6259 16.4461 11.6259C17.1316 11.6259 17.7951 11.3835 18.3193 10.9417C18.8434 10.4998 19.1945 9.88681 19.3104 9.21111C19.4264 8.53541 19.2997 7.84048 18.9528 7.24915C18.6059 6.65781 18.0612 6.20814 17.4148 5.97962V3.87501C17.5722 3.87501 17.7296 3.87501 17.8871 3.88712C19.605 3.98552 21.2558 4.58826 22.6329 5.61995C24.0101 6.65164 25.0525 8.06648 25.6298 9.68751H23.2273C23.0852 9.68746 22.9448 9.71867 22.8161 9.77894C22.6874 9.83921 22.5735 9.92706 22.4826 10.0363L19.3935 13.7441C18.7492 13.5041 18.0408 13.4996 17.3936 13.7315C16.7463 13.9634 16.2019 14.4167 15.8567 15.0112C15.5114 15.6058 15.3875 16.3033 15.5069 16.9803C15.6264 17.6574 15.9814 18.2705 16.5092 18.711C17.037 19.1516 17.7036 19.3913 18.3912 19.3878C19.0787 19.3842 19.7428 19.1377 20.2661 18.6917C20.7893 18.2457 21.138 17.6291 21.2505 16.9508C21.3629 16.2725 21.2319 15.5763 20.8805 14.9854L23.6814 11.625H26.0778C26.1069 11.8769 26.1247 12.1312 26.1311 12.3879C26.1613 13.7754 25.861 15.1503 25.2551 16.3989C24.6491 17.6474 23.7548 18.734 22.6461 19.5688C22.5094 19.6712 22.4023 19.8079 22.3355 19.965C22.2688 20.1222 22.2447 20.2942 22.2658 20.4636L23.2346 28.2136C23.264 28.4476 23.3778 28.6628 23.5546 28.8188C23.7314 28.9749 23.959 29.0611 24.1948 29.0613C24.2353 29.0613 24.2758 29.0589 24.3159 29.054C24.4422 29.0383 24.5641 28.9979 24.6748 28.935C24.7854 28.8722 24.8826 28.7881 24.9608 28.6877C25.0389 28.5873 25.0965 28.4724 25.1303 28.3498C25.164 28.2271 25.1733 28.0989 25.1575 27.9727L24.2566 20.764ZM16.4461 9.68751C16.2545 9.68751 16.0672 9.63069 15.9078 9.52425C15.7485 9.4178 15.6244 9.2665 15.551 9.08948C15.4777 8.91247 15.4585 8.71768 15.4959 8.52977C15.5333 8.34185 15.6256 8.16923 15.761 8.03375C15.8965 7.89827 16.0691 7.806 16.2571 7.76862C16.445 7.73124 16.6398 7.75043 16.8168 7.82375C16.9938 7.89707 17.1451 8.02124 17.2515 8.18055C17.358 8.33986 17.4148 8.52716 17.4148 8.71876C17.4148 8.97569 17.3127 9.22209 17.1311 9.40377C16.9494 9.58544 16.703 9.68751 16.4461 9.68751ZM18.3836 17.4375C18.192 17.4375 18.0047 17.3807 17.8453 17.2742C17.686 17.1678 17.5619 17.0165 17.4885 16.8395C17.4152 16.6625 17.396 16.4677 17.4334 16.2798C17.4708 16.0918 17.5631 15.9192 17.6985 15.7837C17.834 15.6483 18.0066 15.556 18.1946 15.5186C18.3825 15.4812 18.5773 15.5004 18.7543 15.5738C18.9313 15.6471 19.0826 15.7712 19.189 15.9306C19.2955 16.0899 19.3523 16.2772 19.3523 16.4688C19.3523 16.7257 19.2502 16.9721 19.0686 17.1538C18.8869 17.3354 18.6405 17.4375 18.3836 17.4375Z" fill="#616161"/>
</svg>
