<svg width="31" height="31" viewBox="0 0 31 31" fill="none" xmlns="http://www.w3.org/2000/svg">
<path d="M8.71875 16.4687H3.875C3.61807 16.4687 3.37167 16.3667 3.18999 16.185C3.00831 16.0033 2.90625 15.7569 2.90625 15.5C2.90625 15.2431 3.00831 14.9967 3.18999 14.815C3.37167 14.6333 3.61807 14.5312 3.875 14.5312H8.20047L9.84977 12.0561C9.9382 11.9232 10.0581 11.8142 10.1988 11.7389C10.3395 11.6635 10.4966 11.6241 10.6562 11.6241C10.8159 11.6241 10.973 11.6635 11.1137 11.7389C11.2544 11.8142 11.3743 11.9232 11.4627 12.0561L14.5312 16.6577L15.6623 14.9623C15.7508 14.8296 15.8707 14.7209 16.0114 14.6456C16.1521 14.5704 16.3092 14.5311 16.4688 14.5312H19.375C19.6319 14.5312 19.8783 14.6333 20.06 14.815C20.2417 14.9967 20.3438 15.2431 20.3438 15.5C20.3438 15.7569 20.2417 16.0033 20.06 16.185C19.8783 16.3667 19.6319 16.4687 19.375 16.4687H16.987L15.3377 18.9439C15.2493 19.0768 15.1294 19.1858 14.9887 19.2611C14.848 19.3365 14.6909 19.3759 14.5312 19.3759C14.3716 19.3759 14.2145 19.3365 14.0738 19.2611C13.9331 19.1858 13.8132 19.0768 13.7248 18.9439L10.6562 14.3399L9.52523 16.0352C9.43697 16.1684 9.31715 16.2776 9.17644 16.3533C9.03573 16.4289 8.8785 16.4686 8.71875 16.4687ZM21.5547 3.875C19.0541 3.875 16.8647 4.95031 15.5 6.76793C14.1353 4.95031 11.9459 3.875 9.44531 3.875C7.45481 3.87724 5.54647 4.66896 4.13897 6.07647C2.73146 7.48397 1.93974 9.39231 1.9375 11.3828C1.9375 11.4736 1.9375 11.5645 1.9375 11.6553C1.94553 11.9122 2.05529 12.1554 2.24265 12.3314C2.43 12.5074 2.67959 12.6018 2.93652 12.5937C3.19345 12.5857 3.43667 12.476 3.61267 12.2886C3.78866 12.1012 3.88303 11.8517 3.875 11.5947C3.875 11.5245 3.875 11.453 3.875 11.3828C3.87692 9.90606 4.46441 8.49035 5.50863 7.44613C6.55285 6.40191 7.96856 5.81442 9.44531 5.8125C11.8006 5.8125 13.778 7.06703 14.6039 9.08203C14.6769 9.25971 14.8011 9.41168 14.9606 9.51863C15.1202 9.62558 15.3079 9.68269 15.5 9.68269C15.6921 9.68269 15.8798 9.62558 16.0394 9.51863C16.1989 9.41168 16.3231 9.25971 16.3961 9.08203C17.222 7.0634 19.1994 5.8125 21.5547 5.8125C23.0314 5.81442 24.4472 6.40191 25.4914 7.44613C26.5356 8.49035 27.1231 9.90606 27.125 11.3828C27.125 17.8746 17.7087 23.7525 15.5 25.0422C14.1886 24.2781 10.3378 21.8937 7.42547 18.7199C7.25172 18.5304 7.00982 18.4177 6.75297 18.4066C6.49613 18.3954 6.24538 18.4868 6.0559 18.6605C5.86641 18.8343 5.75371 19.0762 5.74258 19.333C5.73146 19.5899 5.82281 19.8406 5.99656 20.0301C9.77105 24.1473 14.8279 26.8937 15.0411 27.0087C15.1821 27.0846 15.3398 27.1244 15.5 27.1244C15.6602 27.1244 15.8179 27.0846 15.9589 27.0087C16.4942 26.7205 29.0625 19.8594 29.0625 11.3828C29.0603 9.39231 28.2685 7.48397 26.861 6.07647C25.4535 4.66896 23.5452 3.87724 21.5547 3.875Z" fill="#616161"/>
</svg>
