<svg width="31" height="31" viewBox="0 0 31 31" fill="none" xmlns="http://www.w3.org/2000/svg">
<path d="M30.0312 25.1875H29.0625V15.5C29.0625 14.9861 28.8584 14.4933 28.495 14.13C28.1317 13.7666 27.6389 13.5625 27.125 13.5625H20.3438V5.8125C20.3438 5.29864 20.1396 4.80583 19.7763 4.44248C19.4129 4.07913 18.9201 3.875 18.4062 3.875H6.78125C6.26739 3.875 5.77458 4.07913 5.41123 4.44248C5.04788 4.80583 4.84375 5.29864 4.84375 5.8125V25.1875H3.875C3.61807 25.1875 3.37167 25.2896 3.18999 25.4712C3.00831 25.6529 2.90625 25.8993 2.90625 26.1562C2.90625 26.4132 3.00831 26.6596 3.18999 26.8413C3.37167 27.0229 3.61807 27.125 3.875 27.125H30.0312C30.2882 27.125 30.5346 27.0229 30.7163 26.8413C30.8979 26.6596 31 26.4132 31 26.1562C31 25.8993 30.8979 25.6529 30.7163 25.4712C30.5346 25.2896 30.2882 25.1875 30.0312 25.1875ZM27.125 15.5V25.1875H20.3438V15.5H27.125ZM6.78125 5.8125H18.4062V25.1875H16.4688V19.375C16.4688 19.1181 16.3667 18.8717 16.185 18.69C16.0033 18.5083 15.7569 18.4062 15.5 18.4062H9.6875C9.43057 18.4062 9.18417 18.5083 9.00249 18.69C8.82081 18.8717 8.71875 19.1181 8.71875 19.375V25.1875H6.78125V5.8125ZM14.5312 25.1875H10.6562V20.3438H14.5312V25.1875ZM8.71875 11.625C8.71875 11.3681 8.82081 11.1217 9.00249 10.94C9.18417 10.7583 9.43057 10.6562 9.6875 10.6562H11.625V8.71875C11.625 8.46182 11.7271 8.21542 11.9087 8.03374C12.0904 7.85206 12.3368 7.75 12.5938 7.75C12.8507 7.75 13.0971 7.85206 13.2788 8.03374C13.4604 8.21542 13.5625 8.46182 13.5625 8.71875V10.6562H15.5C15.7569 10.6562 16.0033 10.7583 16.185 10.94C16.3667 11.1217 16.4688 11.3681 16.4688 11.625C16.4688 11.8819 16.3667 12.1283 16.185 12.31C16.0033 12.4917 15.7569 12.5938 15.5 12.5938H13.5625V14.5312C13.5625 14.7882 13.4604 15.0346 13.2788 15.2163C13.0971 15.3979 12.8507 15.5 12.5938 15.5C12.3368 15.5 12.0904 15.3979 11.9087 15.2163C11.7271 15.0346 11.625 14.7882 11.625 14.5312V12.5938H9.6875C9.43057 12.5938 9.18417 12.4917 9.00249 12.31C8.82081 12.1283 8.71875 11.8819 8.71875 11.625Z" fill="#616161"/>
</svg>
