<svg width="24" height="24" viewBox="0 0 24 24" fill="none" xmlns="http://www.w3.org/2000/svg">
<path d="M13.3984 11.3999V6.3999C13.3984 6.13469 13.2931 5.88033 13.1055 5.6928C12.918 5.50526 12.6637 5.3999 12.3984 5.3999C12.1332 5.3999 11.8789 5.50526 11.6913 5.6928C11.5038 5.88033 11.3984 6.13469 11.3984 6.3999V11.3999H6.39844C6.13322 11.3999 5.87887 11.5053 5.69133 11.6928C5.50379 11.8803 5.39844 12.1347 5.39844 12.3999C5.39844 12.6651 5.50379 12.9195 5.69133 13.107C5.87887 13.2945 6.13322 13.3999 6.39844 13.3999H11.3984V18.3999C11.3984 18.6651 11.5038 18.9195 11.6913 19.107C11.8789 19.2945 12.1332 19.3999 12.3984 19.3999C12.6637 19.3999 12.918 19.2945 13.1055 19.107C13.2931 18.9195 13.3984 18.6651 13.3984 18.3999V13.3999H18.3984C18.6637 13.3999 18.918 13.2945 19.1055 13.107C19.2931 12.9195 19.3984 12.6651 19.3984 12.3999C19.3984 12.1347 19.2931 11.8803 19.1055 11.6928C18.918 11.5053 18.6637 11.3999 18.3984 11.3999H13.3984Z" fill="white"/>
</svg>
