<svg width="31" height="31" viewBox="0 0 31 31" fill="none" xmlns="http://www.w3.org/2000/svg">
<g clip-path="url(#clip0_882_579)">
<path d="M24.6007 23.2501C25.1794 21.8611 25.3345 20.332 25.0465 18.8551C24.7585 17.3782 24.0403 16.0193 22.9822 14.9495C23.2734 14.216 23.3287 13.4099 23.1404 12.6435C22.9521 11.8771 22.5296 11.1885 21.9317 10.6734L24.6209 7.98425C24.9837 7.62058 25.1874 7.12785 25.1874 6.61415C25.1874 6.10044 24.9837 5.60771 24.6209 5.24404L21.8811 2.50422C21.5174 2.14132 21.0247 1.9375 20.511 1.9375C19.9972 1.9375 19.5045 2.14132 19.1409 2.50422L6.38009 15.265C6.01733 15.6287 5.81361 16.1214 5.81361 16.6351C5.81361 17.1488 6.01733 17.6415 6.38009 18.0052L9.11991 20.745C9.48357 21.1078 9.9763 21.3116 10.49 21.3116C11.0037 21.3116 11.4965 21.1078 11.8601 20.745L16.4858 16.1188C17.1417 16.8778 18.0704 17.3475 19.0705 17.4259C20.0705 17.5044 21.0612 17.1853 21.8274 16.5379C22.6237 17.4491 23.1128 18.588 23.2252 19.7929C23.3375 20.9978 23.0674 22.2074 22.4532 23.2501H15.5V27.1251H3.875V29.0626H27.125V23.2501H24.6007ZM10.4897 19.3751L7.75 16.6349L9.56999 14.8152L12.3099 17.5549L10.4897 19.3751ZM15.5 13.5626C15.5014 13.8074 15.5261 14.0514 15.5738 14.2915L13.6798 16.185L10.9398 13.4453L20.5111 3.87404L23.251 6.61385L20.1037 9.76142C19.5431 9.65003 18.9648 9.66474 18.4107 9.80448C17.8565 9.94422 17.3404 10.2055 16.8997 10.5694C16.459 10.9333 16.1048 11.3906 15.8627 11.9083C15.6206 12.426 15.4967 12.9911 15.5 13.5626ZM19.375 15.5001C18.9918 15.5001 18.6172 15.3865 18.2986 15.1736C17.98 14.9607 17.7316 14.6581 17.585 14.304C17.4383 13.95 17.4 13.5605 17.4747 13.1846C17.5495 12.8088 17.734 12.4635 18.005 12.1926C18.2759 11.9216 18.6212 11.7371 18.997 11.6623C19.3729 11.5876 19.7624 11.6259 20.1164 11.7726C20.4705 11.9192 20.7731 12.1676 20.986 12.4862C21.1989 12.8048 21.3125 13.1794 21.3125 13.5626C21.3119 14.0763 21.1076 14.5687 20.7444 14.932C20.3811 15.2952 19.8887 15.4995 19.375 15.5001ZM25.1875 27.1251H17.4375V25.1876H25.1875V27.1251Z" fill="#616161"/>
</g>
<defs>
<clipPath id="clip0_882_579">
<rect width="31" height="31" fill="white"/>
</clipPath>
</defs>
</svg>
