<svg width="31" height="31" viewBox="0 0 31 31" fill="none" xmlns="http://www.w3.org/2000/svg">
<g clip-path="url(#clip0_882_4016)">
<path d="M10.5682 11.273H9.93405C10.0749 10.9208 10.2159 10.6389 10.4272 10.2866C10.8499 9.51165 11.2727 8.66617 11.2727 7.6798C11.2727 5.42528 10.1454 4.22754 8.1022 4.22754C3.45226 4.22754 0 8.03212 0 13.0344C0 17.3321 1.97274 19.7275 5.63637 19.7275C6.975 19.7275 8.03185 19.3753 8.80685 18.6003C9.65232 17.7548 10.0046 16.4866 10.0046 14.7958C10.0046 14.373 9.65232 14.0912 9.30006 14.0912C8.87732 14.0912 8.59554 14.4435 8.59554 14.7958C8.59554 16.1344 8.38417 17.0503 7.82054 17.6139C7.32738 18.1071 6.6228 18.3184 5.63643 18.3184C2.81828 18.3184 1.40917 16.6275 1.40917 13.0343C1.40917 8.80706 4.2978 5.63659 8.10232 5.63659C9.01822 5.63659 9.86369 5.84795 9.86369 7.60932C9.86369 8.24343 9.51143 8.87748 9.15917 9.58206C8.73643 10.2866 8.38417 11.0616 8.38417 11.9775C8.38417 12.4003 8.66601 12.6821 9.08869 12.6821H10.5682C12.1182 12.6821 13.3864 13.9502 13.3864 15.5002V26.0684C13.3864 26.4911 13.6682 26.7729 14.0909 26.7729C14.5136 26.7729 14.7954 26.491 14.7954 26.0684V15.5003C14.7955 13.1753 12.8932 11.273 10.5682 11.273Z" fill="#616161" stroke="#616161" stroke-width="0.192"/>
<path d="M22.8963 4.22754C20.8532 4.22754 19.7259 5.42528 19.7259 7.60938C19.7259 8.59575 20.1486 9.44123 20.5713 10.2162C20.7827 10.5685 20.9236 10.9208 21.0645 11.2026H20.4304C18.1054 11.2026 16.2031 13.1049 16.2031 15.4299V25.998C16.2031 26.4208 16.485 26.7025 16.9076 26.7025C17.3304 26.7025 17.6122 26.4207 17.6122 25.998V15.5003C17.6122 13.9503 18.8803 12.6821 20.4303 12.6821H21.9099C22.3326 12.6821 22.6144 12.4003 22.6144 11.9776C22.6144 11.0617 22.1916 10.3571 21.8394 9.58212C21.4871 8.94802 21.1348 8.31397 21.1348 7.60938C21.1348 5.84802 21.9803 5.63665 22.8962 5.63665C26.7007 5.63665 29.5894 8.80712 29.5894 13.0344C29.5894 16.5571 28.1803 18.3185 25.3621 18.3185C24.3757 18.3185 23.6712 18.1071 23.178 17.614C22.6144 17.0503 22.403 16.1344 22.403 14.7958C22.403 14.3731 22.1212 14.0913 21.6985 14.0913C21.3462 14.0913 20.994 14.3731 20.994 14.7958C20.994 16.5572 21.3462 17.7549 22.1917 18.6003C22.9667 19.3753 24.0235 19.7276 25.3622 19.7276C29.0258 19.7276 30.9985 17.3321 30.9985 13.0344C30.9986 8.03212 27.5463 4.22754 22.8963 4.22754Z" fill="#616161" stroke="#616161" stroke-width="0.192"/>
</g>
<defs>
<clipPath id="clip0_882_4016">
<rect width="31" height="31" fill="white"/>
</clipPath>
</defs>
</svg>
