<svg width="33" height="32" viewBox="0 0 33 32" fill="none" xmlns="http://www.w3.org/2000/svg">
<g clip-path="url(#clip0_882_3883)">
<path d="M17.9459 30.3596C14.2139 30.3596 10.6889 28.9396 8.00194 26.3596H4.30594V29.6386H5.94594V30.3596H1.94594V29.6396H3.58594V26.3596H1.94594C1.74694 26.3596 1.58594 26.1986 1.58594 25.9996V21.9996C1.58594 21.8006 1.74694 21.6396 1.94594 21.6396H25.7589C26.9069 20.0526 27.5849 18.1046 27.5849 15.9996C27.5849 10.6846 23.2609 6.35965 17.9449 6.35965C14.1119 6.35965 10.6429 8.63065 9.10694 12.1436L8.44694 11.8556C10.0979 8.07965 13.8259 5.63965 17.9459 5.63965C23.6589 5.63965 28.3059 10.2866 28.3059 15.9996C28.3059 21.7126 23.6589 26.3596 17.9459 26.3596H9.07194C11.5429 28.4806 14.6599 29.6386 17.9459 29.6386C25.4669 29.6386 31.5859 23.5206 31.5859 15.9986C31.5859 8.47765 25.4679 2.35865 17.9459 2.35865C11.9549 2.35865 6.57794 6.36465 4.87094 12.1016L4.18094 11.8966C5.97794 5.85765 11.6379 1.63965 17.9459 1.63965C25.8639 1.63965 32.3059 8.08165 32.3059 15.9996C32.3059 23.9176 25.8639 30.3596 17.9459 30.3596ZM2.30594 25.6396H17.9459C20.8269 25.6396 23.4169 24.3696 25.1839 22.3606H2.30594V25.6396ZM22.4459 20.3596C21.3729 20.3596 20.4349 19.7646 19.9459 18.8866C19.4569 19.7646 18.5189 20.3596 17.4459 20.3596H1.94594V19.6396H17.4459C18.6259 19.6396 19.5859 18.6796 19.5859 17.4996C19.5859 16.3196 18.6259 15.3596 17.4459 15.3596H11.9459C11.0419 15.3596 10.3059 16.0956 10.3059 16.9996C10.3059 17.1986 10.1449 17.3596 9.94594 17.3596H1.94594V16.6396H9.61294C9.78694 15.5086 10.7669 14.6396 11.9459 14.6396H17.4459C18.5189 14.6396 19.4569 15.2346 19.9459 16.1116C20.4349 15.2346 21.3729 14.6396 22.4459 14.6396C24.0229 14.6396 25.3059 15.9226 25.3059 17.4996C25.3059 19.0766 24.0229 20.3596 22.4459 20.3596ZM22.4459 15.3596C21.2659 15.3596 20.3059 16.3196 20.3059 17.4996C20.3059 18.6796 21.2659 19.6396 22.4459 19.6396C23.6259 19.6396 24.5859 18.6796 24.5859 17.4996C24.5859 16.3196 23.6259 15.3596 22.4459 15.3596ZM19.9459 4.35965H15.9459V3.63965H19.9459V4.35965Z" fill="black" stroke="#616161" stroke-width="0.8"/>
</g>
<defs>
<clipPath id="clip0_882_3883">
<rect width="32" height="32" fill="white" transform="translate(0.945312)"/>
</clipPath>
</defs>
</svg>
