<svg width="31" height="31" viewBox="0 0 31 31" fill="none" xmlns="http://www.w3.org/2000/svg">
<path fill-rule="evenodd" clip-rule="evenodd" d="M12.495 3.78367C12.495 2.52926 13.5113 1.51292 14.7644 1.51292C16.0175 1.51292 17.0339 2.52926 17.0339 3.78367C17.0339 5.0381 16.0175 6.05441 14.7644 6.05441C13.5113 6.05441 12.495 5.0381 12.495 3.78367ZM14.7644 0C12.6752 0 10.982 1.69431 10.982 3.78367C10.982 4.17983 11.0429 4.56176 11.1558 4.9207H10.7045C10.3551 4.9207 9.96748 5.06193 9.63176 5.23803C9.27259 5.42647 8.88438 5.70129 8.52483 6.06053C7.80173 6.78288 7.16797 7.87657 7.16797 9.31604C7.16797 11.0871 7.75528 12.3808 8.48164 13.2406C8.84096 13.6659 9.2331 13.9835 9.6012 14.1988C9.71247 14.264 9.82904 14.3241 9.94804 14.3756V28.6456C9.94804 29.7435 10.8432 30.6386 11.941 30.6386L11.9438 30.6385H11.9528L11.9555 30.6386C13.0534 30.6386 13.9485 29.7435 13.9485 28.6456V20.5878H15.6505V28.6456C15.6505 29.7435 16.5456 30.6386 17.6434 30.6386L17.6462 30.6385H17.6552L17.658 30.6386C18.7558 30.6386 19.6509 29.7435 19.6509 28.6456V14.4731L19.8333 14.9958C20.0897 15.7305 20.7537 16.2068 21.4834 16.2595C20.8683 16.6655 20.4624 17.3629 20.4624 18.155V18.6594C20.4624 19.0772 20.801 19.4158 21.2188 19.4158C21.6366 19.4158 21.9753 19.0772 21.9753 18.6594V18.155C21.9753 17.7373 22.314 17.3986 22.7318 17.3986C23.1496 17.3986 23.4882 17.7373 23.4882 18.155V28.7455C23.4882 29.1633 23.8269 29.5019 24.2447 29.5019C24.6625 29.5019 25.0011 29.1633 25.0011 28.7455V18.155C25.0011 16.9092 23.9972 15.8978 22.7542 15.8857C23.3956 15.4047 23.6826 14.5471 23.4045 13.7497L20.9436 6.69679C20.5727 5.63366 19.5698 4.92145 18.4438 4.92145H18.3728C18.4858 4.56229 18.5468 4.1801 18.5468 3.78367C18.5468 1.69431 16.8537 0 14.7644 0ZM10.7045 6.43362H12.0646C12.7509 7.13327 13.707 7.56733 14.7644 7.56733C15.8215 7.56733 16.7772 7.13357 17.4635 6.43438H18.4438C18.9264 6.43438 19.3561 6.73961 19.5151 7.19522L21.976 14.2482C22.0448 14.4454 21.9407 14.661 21.7434 14.7299C21.5462 14.7987 21.3306 14.6945 21.2617 14.4973L19.6087 9.75962L18.138 10.0088V28.6456C18.138 28.9079 17.9203 29.1257 17.658 29.1257L17.6552 29.1256H17.6462L17.6434 29.1257C17.3812 29.1257 17.1634 28.9079 17.1634 28.6456V19.8314V19.0749H16.4069H13.192H12.4356V19.8314V28.6456C12.4356 28.9079 12.2179 29.1257 11.9555 29.1257L11.9528 29.1256H11.9438L11.941 29.1257C11.6787 29.1257 11.461 28.9079 11.461 28.6456V13.798V13.0415H11.4588V9.07752H9.94584V12.583C9.8438 12.4914 9.73971 12.3854 9.63728 12.2642C9.14362 11.6798 8.68089 10.7326 8.68089 9.31604C8.68089 8.35314 9.09717 7.62731 9.59409 7.13085C9.84455 6.88069 10.1089 6.69619 10.3347 6.57772C10.5513 6.4641 10.6778 6.43914 10.7011 6.43453C10.7046 6.43385 10.7045 6.43362 10.7045 6.43362Z" fill="#616161"/>
</svg>
