<svg width="163" height="167" viewBox="0 0 163 167" fill="none" xmlns="http://www.w3.org/2000/svg">
<path d="M96 0H0V85.1351H96V0Z" fill="#17C6C4"/>
<path fill-rule="evenodd" clip-rule="evenodd" d="M27.1397 42.5674L13 34.9254L23.422 18.0473L37.5699 25.676L37.578 10.4053H58.422L58.4301 25.676L72.578 18.0473L83 34.9254L68.8599 42.5674L83 50.2095L72.578 67.0876L58.4301 59.4589L58.422 74.7296H37.578L37.5699 59.4589L23.422 67.0876L13 50.2095L27.1397 42.5674Z" fill="white"/>
<path d="M163 106.892H96V166.486H163V106.892Z" fill="#79BBE3"/>
<path d="M129.634 136.827C129.634 136.827 129.899 126.873 123.734 120.892C117.569 114.911 107.306 115.168 107.306 115.168C107.306 115.168 107.042 125.122 113.207 131.103C119.372 137.083 129.634 136.827 129.634 136.827Z" fill="white"/>
<path d="M129.486 136.827C129.486 136.827 129.221 126.873 135.389 120.892C141.554 114.911 151.817 115.168 151.817 115.168C151.817 115.168 152.081 125.122 145.916 131.103C139.748 137.083 129.486 136.827 129.486 136.827Z" fill="white"/>
<path d="M129.634 136.83C129.634 136.83 129.899 146.784 123.734 152.765C117.569 158.746 107.306 158.489 107.306 158.489C107.306 158.489 107.042 148.535 113.207 142.554C119.372 136.573 129.634 136.83 129.634 136.83Z" fill="white"/>
<path d="M129.486 136.83C129.486 136.83 129.221 146.784 135.389 152.765C141.554 158.746 151.817 158.489 151.817 158.489C151.817 158.489 152.081 148.535 145.916 142.554C139.748 136.573 129.486 136.83 129.486 136.83Z" fill="white"/>
</svg>
