<svg width="329" height="287" viewBox="0 0 329 287" fill="none" xmlns="http://www.w3.org/2000/svg">
<path d="M187 146H0V205.5V265H187V146Z" fill="#A4DCC2"/>
<path d="M329 40.5137H198V199.433H329V121.392V40.5137Z" fill="#17C6C4"/>
<path fill-rule="evenodd" clip-rule="evenodd" d="M249.26 120.446L223 106.174L242.355 74.6515L268.63 88.8993L268.645 60.3789H307.355L307.37 88.8993L329 76.933V118.555L326.74 120.446L329 122.811V165.852L307.37 151.994L307.355 180.514H268.645L268.63 151.994L242.355 166.241L223 134.719L249.26 120.446Z" fill="white"/>
<path d="M173 0.78418H64V98.2166H173V0.78418Z" fill="#79BBE3"/>
<path fill-rule="evenodd" clip-rule="evenodd" d="M93.633 232.647C92.0154 262.407 65.9928 286.113 34 286.46V172.946C65.9928 173.293 92.0154 196.999 93.633 226.759C95.2272 197.392 120.585 173.919 152 172.972V286.434C120.585 285.488 95.2272 262.015 93.633 232.647Z" fill="white"/>
<path d="M118.718 49.4851C118.718 49.4851 119.148 33.2914 109.118 23.5612C99.0887 13.8309 82.3933 14.2487 82.3933 14.2487C82.3933 14.2487 81.9627 30.4425 91.9925 40.1726C102.022 49.9028 118.718 49.4851 118.718 49.4851Z" fill="white"/>
<path d="M118.479 49.4851C118.479 49.4851 118.049 33.2914 128.083 23.5612C138.113 13.8309 154.808 14.2487 154.808 14.2487C154.808 14.2487 155.239 30.4425 145.209 40.1726C135.175 49.9028 118.479 49.4851 118.479 49.4851Z" fill="white"/>
<path d="M118.718 49.4899C118.718 49.4899 119.148 65.6837 109.118 75.4138C99.0887 85.1444 82.3933 84.7263 82.3933 84.7263C82.3933 84.7263 81.9627 68.533 91.9925 58.8024C102.022 49.0722 118.718 49.4899 118.718 49.4899Z" fill="white"/>
<path d="M118.471 49.4899C118.471 49.4899 118.041 65.6837 128.075 75.4138C138.105 85.1444 154.8 84.7263 154.8 84.7263C154.8 84.7263 155.231 68.533 145.201 58.8024C135.167 49.0722 118.471 49.4899 118.471 49.4899Z" fill="white"/>
</svg>
