<svg width="31" height="30" viewBox="0 0 31 30" fill="none" xmlns="http://www.w3.org/2000/svg">
<g clip-path="url(#clip0_882_2797)">
<path d="M29.9637 5.61224C29.9503 5.38289 29.8531 5.16644 29.6907 5.00398C29.5282 4.84153 29.3118 4.74439 29.0824 4.73099C23.0168 4.37943 18.1465 6.22396 16.0535 9.67865C14.6707 11.9626 14.673 14.7365 16.0348 17.3826C15.2597 18.3052 14.6932 19.3846 14.3742 20.5466L12.4676 18.6329C13.384 16.7193 13.3488 14.7247 12.3504 13.0677C10.8035 10.5142 7.2328 9.14545 2.7996 9.4056C2.57025 9.419 2.3538 9.51614 2.19134 9.67859C2.02889 9.84105 1.93175 10.0575 1.91835 10.2869C1.65702 14.7201 3.02695 18.2908 5.58046 19.8376C6.42312 20.3525 7.39142 20.6249 8.3789 20.6251C9.33737 20.6133 10.2809 20.3863 11.1398 19.9607L14.0695 22.8904V26.2501C14.0695 26.4988 14.1683 26.7372 14.3441 26.913C14.5199 27.0889 14.7584 27.1876 15.007 27.1876C15.2557 27.1876 15.4941 27.0889 15.6699 26.913C15.8458 26.7372 15.9445 26.4988 15.9445 26.2501V22.7943C15.9404 21.3028 16.4479 19.8551 17.3824 18.6927C18.5882 19.3229 19.9255 19.6601 21.2859 19.6771C22.6012 19.6813 23.8921 19.322 25.016 18.6388C28.4707 16.5482 30.3199 11.6779 29.9637 5.61224ZM6.54726 18.2345C4.7496 17.1458 3.73241 14.5689 3.75702 11.2501C7.07577 11.222 9.65273 12.2427 10.7414 14.0404C11.3098 14.9779 11.4023 16.0712 11.0297 17.1974L8.16913 14.3369C7.99189 14.1685 7.75587 14.076 7.51141 14.0791C7.26694 14.0822 7.03337 14.1807 6.8605 14.3536C6.68762 14.5265 6.58912 14.7601 6.58599 15.0045C6.58286 15.249 6.67535 15.485 6.84374 15.6622L9.70429 18.5228C8.57812 18.8954 7.48593 18.8029 6.54726 18.2345ZM24.0445 17.0369C22.4742 17.9872 20.6285 18.0599 18.7535 17.2712L25.0453 10.9783C25.2137 10.801 25.3062 10.565 25.3031 10.3205C25.2999 10.0761 25.2014 9.8425 25.0285 9.66962C24.8557 9.49675 24.6221 9.39824 24.3776 9.39511C24.1332 9.39198 23.8972 9.48447 23.7199 9.65287L17.4269 15.9376C16.6348 14.0626 16.7062 12.2158 17.6613 10.6466C19.2949 7.9513 23.1691 6.44896 28.1297 6.56498C28.2422 11.5244 26.7422 15.4033 24.0445 17.0369Z" fill="#616161"/>
</g>
<defs>
<clipPath id="clip0_882_2797">
<rect width="30" height="30" fill="white" transform="translate(0.945312)"/>
</clipPath>
</defs>
</svg>
