<svg width="32" height="31" viewBox="0 0 32 31" fill="none" xmlns="http://www.w3.org/2000/svg">
<path d="M16.2657 9.90479C14.7274 5.98528 12.9401 3.60116 12.357 2.8817C12.2521 2.75204 12.0613 2.73435 11.9335 2.84156C11.8139 2.94191 11.7915 3.11689 11.8821 3.24416C13.0446 4.87723 15.3176 9.0976 15.3176 12.9649C15.3176 15.7969 14.3907 17.2114 14.3977 18.5182C14.4033 19.5511 15.234 20.3883 16.2658 20.3883C17.0767 20.3883 18.01 19.7614 18.189 18.6151C18.4063 17.223 17.7965 13.8054 16.2657 9.90479ZM20.2567 11.6854C19.7223 11.6854 19.2178 11.9198 18.8727 12.3284C18.5327 12.731 18.388 13.258 18.4757 13.7743C18.5809 14.3933 18.7749 14.9533 18.9802 15.5463C19.2965 16.4597 19.6236 17.4042 19.6236 18.6403C19.6236 20.4521 18.2061 21.8713 16.3965 21.8713C14.587 21.8713 13.1696 20.452 13.1696 18.6403C13.1696 17.4311 13.5166 16.5007 13.8522 15.6011C14.08 14.9905 14.2952 14.4137 14.4025 13.7729C14.4889 13.2573 14.3434 12.7309 14.0031 12.3289C13.657 11.92 13.1516 11.6855 12.6162 11.6855H3.72656L3.72656 27.6318H29.1625V11.6854H20.2567ZM19.7697 13.0859C19.8912 12.9419 20.0687 12.8594 20.2567 12.8594H27.9884V16.3168C27.3487 16.428 26.9555 16.7363 26.6274 16.9944C26.2808 17.2669 26.0302 17.4639 25.4761 17.4639C24.9228 17.4639 24.6724 17.267 24.3259 16.9946C23.9175 16.6735 23.4093 16.2739 22.4491 16.2739C21.5256 16.2739 21.0208 16.6437 20.6203 16.9575C20.4803 16.2912 20.2779 15.7061 20.0895 15.1623C19.9005 14.6166 19.722 14.1011 19.633 13.5779C19.5925 13.3385 19.7013 13.1668 19.7697 13.0859ZM12.6163 12.8594C12.8056 12.8594 12.9845 12.9425 13.107 13.0873C13.1756 13.1683 13.2847 13.3399 13.2448 13.5789C13.1559 14.1087 12.9599 14.6344 12.7523 15.1908C12.5514 15.7294 12.3355 16.3089 12.186 16.9682C11.7832 16.6522 11.2773 16.2738 10.3426 16.2738C9.38287 16.2738 8.87485 16.6733 8.46658 16.9945C8.12012 17.2669 7.86973 17.4638 7.3163 17.4638C6.76287 17.4638 6.51259 17.2669 6.16602 16.9945C5.85463 16.7495 5.48442 16.4595 4.90069 16.3354V12.8594H12.6163ZM4.90049 26.4578L4.90049 17.5617C5.09404 17.6457 5.25331 17.7702 5.44011 17.9172C5.84837 18.2383 6.3564 18.6378 7.3161 18.6378C8.27591 18.6378 8.78393 18.2383 9.1921 17.9172C9.53857 17.6448 9.78895 17.4478 10.3424 17.4478C10.8962 17.4478 11.1465 17.6446 11.4929 17.9167C11.6449 18.0361 11.8097 18.1648 12.0054 18.2803C11.9996 18.3981 11.9956 18.5175 11.9956 18.6404C11.9956 21.1105 13.9287 23.0454 16.3965 23.0454C18.8644 23.0454 20.7975 21.1105 20.7975 18.6404C20.7975 18.5173 20.7938 18.3976 20.7886 18.2795C20.9834 18.1642 21.1478 18.0359 21.2993 17.9168C21.6458 17.6447 21.896 17.4479 22.4491 17.4479C23.0031 17.4479 23.2536 17.645 23.6003 17.9175C24.0086 18.2385 24.5166 18.6379 25.4762 18.6379C26.4364 18.6379 26.9448 18.2383 27.353 17.9172C27.5698 17.7468 27.7491 17.6059 27.9884 17.5243V26.458H4.90049V26.4578Z" fill="#616161" stroke="#616161" stroke-width="0.0026"/>
</svg>
