<svg width="31" height="31" viewBox="0 0 31 31" fill="none" xmlns="http://www.w3.org/2000/svg">
<path d="M26.6406 19.375C26.6406 19.6624 26.5554 19.9433 26.3957 20.1823C26.2361 20.4213 26.0091 20.6075 25.7436 20.7175C25.4781 20.8275 25.1859 20.8563 24.904 20.8002C24.6221 20.7441 24.3632 20.6057 24.16 20.4025C23.9568 20.1993 23.8184 19.9404 23.7623 19.6585C23.7062 19.3766 23.735 19.0844 23.845 18.8189C23.955 18.5534 24.1412 18.3264 24.3802 18.1668C24.6192 18.0071 24.9001 17.9219 25.1875 17.9219C25.5729 17.9219 25.9425 18.075 26.215 18.3475C26.4875 18.62 26.6406 18.9896 26.6406 19.375ZM26.0896 24.1328C25.8769 25.5046 25.1809 26.7552 24.1274 27.6591C23.0738 28.563 21.7319 29.0607 20.3438 29.0625H17.4375C15.8964 29.0609 14.4189 28.448 13.3292 27.3583C12.2395 26.2686 11.6266 24.7911 11.625 23.25V18.3445C9.75232 18.1086 8.03011 17.1973 6.78157 15.7818C5.53303 14.3663 4.84399 12.5437 4.84375 10.6562V4.84375C4.84375 4.58682 4.94581 4.34042 5.12749 4.15874C5.30917 3.97706 5.55557 3.875 5.8125 3.875H8.71875C8.97568 3.875 9.22208 3.97706 9.40376 4.15874C9.58544 4.34042 9.6875 4.58682 9.6875 4.84375C9.6875 5.10068 9.58544 5.34708 9.40376 5.52876C9.22208 5.71044 8.97568 5.8125 8.71875 5.8125H6.78125V10.6562C6.78118 11.4261 6.93406 12.1883 7.231 12.8986C7.52794 13.6089 7.96302 14.2532 8.511 14.794C9.05898 15.3347 9.70892 15.7612 10.4231 16.0487C11.1373 16.3362 11.9014 16.479 12.6713 16.4688C15.833 16.4276 18.4063 13.7744 18.4063 10.5557V5.8125H16.4688C16.2118 5.8125 15.9654 5.71044 15.7837 5.52876C15.6021 5.34708 15.5 5.10068 15.5 4.84375C15.5 4.58682 15.6021 4.34042 15.7837 4.15874C15.9654 3.97706 16.2118 3.875 16.4688 3.875H19.375C19.6319 3.875 19.8783 3.97706 20.06 4.15874C20.2417 4.34042 20.3438 4.58682 20.3438 4.84375V10.5557C20.3438 14.5325 17.3733 17.8565 13.5625 18.3433V23.25C13.5625 24.2777 13.9708 25.2633 14.6975 25.99C15.4242 26.7167 16.4098 27.125 17.4375 27.125H20.3438C21.2237 27.1235 22.0771 26.8232 22.764 26.2731C23.4509 25.7231 23.9305 24.956 24.1243 24.0977C22.9543 23.8349 21.9234 23.1474 21.2311 22.1684C20.5387 21.1893 20.2341 19.9883 20.3763 18.7976C20.5184 17.6069 21.0971 16.5113 22.0004 15.7227C22.9037 14.9341 24.0675 14.5086 25.2664 14.5286C26.4654 14.5485 27.6143 15.0125 28.4909 15.8307C29.3675 16.6489 29.9095 17.7632 30.0119 18.9579C30.1143 20.1526 29.77 21.3429 29.0454 22.2984C28.3209 23.2539 27.2677 23.9066 26.0896 24.1304V24.1328ZM28.0938 19.375C28.0938 18.8002 27.9233 18.2383 27.604 17.7604C27.2846 17.2824 26.8307 16.9099 26.2997 16.69C25.7686 16.47 25.1843 16.4125 24.6205 16.5246C24.0568 16.6367 23.5389 16.9135 23.1325 17.32C22.726 17.7264 22.4492 18.2443 22.3371 18.808C22.225 19.3718 22.2825 19.9561 22.5025 20.4872C22.7224 21.0182 23.0949 21.4721 23.5729 21.7915C24.0508 22.1108 24.6127 22.2812 25.1875 22.2812C25.9583 22.2812 26.6975 21.9751 27.2425 21.43C27.7876 20.885 28.0938 20.1458 28.0938 19.375Z" fill="#616161"/>
</svg>
