<svg width="31" height="31" viewBox="0 0 31 31" fill="none" xmlns="http://www.w3.org/2000/svg">
<g clip-path="url(#clip0_882_3318)">
<path d="M29.3341 9.84831C28.8018 8.95621 28.1515 8.16057 27.3899 7.51538C26.6293 6.86826 25.7545 6.37256 24.7887 6.09822C22.8905 5.56087 21.2206 5.01407 20.1406 4.35938C19.5986 4.03581 19.2131 3.69711 18.9771 3.35847C18.743 3.01693 18.626 2.68301 18.6222 2.20996C18.6222 2.16455 18.6222 2.13525 18.6222 2.11533L18.6251 2.06047C18.627 2.01506 18.627 1.96965 18.627 1.86557V0H16.5188V1.86563C16.5188 1.91292 16.5188 1.94513 16.5178 1.96783C16.5159 2.0038 16.5159 2.01984 16.5149 2.03498C16.5139 2.07942 16.5139 2.11726 16.5139 2.21002C16.5101 3.07851 16.7787 3.88832 17.2439 4.54295C17.945 5.53065 18.9905 6.18341 20.1808 6.72264C21.3769 7.25999 22.7504 7.68194 24.2045 8.09536C24.8443 8.277 25.4534 8.61473 26.0154 9.09154C26.8585 9.80484 27.5865 10.838 28.0949 12.0508C28.6052 13.2636 28.8939 14.6524 28.8929 16.0563C28.8929 17.7933 28.4555 19.5434 27.4848 21.0609C26.1487 23.146 24.5565 24.4685 22.8597 25.2973C21.162 26.1232 19.3435 26.4486 17.5824 26.4495C16.1178 26.4495 14.6973 26.2225 13.4503 25.88C12.2063 25.5413 11.1349 25.0835 10.3868 24.6501C10.0894 24.4789 9.70767 24.266 9.28563 24.0844C9.07269 23.9936 8.85016 23.9094 8.61229 23.8441C8.37442 23.7797 8.1212 23.7324 7.83729 23.7315C7.67228 23.7315 7.49678 23.7495 7.31164 23.7978C7.0373 23.8687 6.73995 24.0248 6.51552 24.2642C6.28722 24.5007 6.14432 24.7939 6.07047 25.0834L6.07145 25.0815C5.93143 25.6227 5.83935 26.2074 5.76931 26.8459C5.68969 27.5772 5.64844 28.3909 5.64844 29.2896V29.3066V29.3236V31H7.75669V29.2971V29.2896C7.75669 28.4542 7.79505 27.7125 7.86509 27.0673C7.915 26.6066 7.97829 26.1998 8.05404 25.8498C8.21997 25.8933 8.44157 25.9822 8.666 26.0919C8.89239 26.2017 9.12063 26.3284 9.3221 26.4458C10.2592 26.9841 11.4764 27.4968 12.8864 27.8838C14.2963 28.2698 15.8982 28.5271 17.5824 28.5281C19.6044 28.5281 21.7529 28.1544 23.792 27.1619C25.8302 26.1733 27.7437 24.5584 29.2669 22.1697C30.4764 20.2776 31.0011 18.1338 31.0011 16.0563C30.9992 13.8123 30.3969 11.6344 29.3341 9.84831Z" fill="#616161"/>
<path d="M8.90678 18.832C11.1973 18.8329 13.1329 18.1073 14.5064 16.972C15.877 15.8425 16.7048 14.289 16.7086 12.6685C16.7086 12.2248 16.6453 11.7792 16.5139 11.345C16.4084 11.0054 16.3287 10.5758 16.1513 10.0867C16.0621 9.84268 15.9423 9.58342 15.7687 9.32803C15.596 9.07446 15.3677 8.82664 15.0848 8.62133C14.6426 8.29874 14.2704 7.94393 13.9942 7.57787L13.9923 7.57599C13.8282 7.35838 13.6853 7.13133 13.5645 6.90053C13.4263 6.63563 13.316 6.36505 13.2268 6.09168C13.1252 5.77853 13.0504 5.46448 12.9966 5.15224C12.9353 4.79465 12.8988 4.43893 12.8777 4.08697C12.8528 3.68585 12.848 3.2923 12.848 2.91006C12.848 2.54963 12.8527 2.20052 12.8527 1.86563V0H10.7445V1.86563C10.7445 2.17975 10.7397 2.52977 10.7397 2.91006C10.7397 3.31306 10.7455 3.74828 10.7733 4.21182C10.7982 4.61864 10.8404 5.05003 10.9191 5.50129C10.9872 5.89581 11.0821 6.30638 11.2202 6.72833C11.3411 7.09918 11.4946 7.47572 11.6902 7.85226C11.8629 8.18055 12.0662 8.50696 12.3051 8.82101L12.3041 8.82005C12.7319 9.38483 13.2546 9.8692 13.8292 10.2912C13.9117 10.3517 13.9644 10.4094 14.0191 10.487C14.0977 10.6015 14.1726 10.7755 14.2455 11.0233C14.3184 11.2703 14.3875 11.5834 14.4929 11.9391C14.5659 12.1766 14.6004 12.4197 14.6004 12.6685C14.6032 13.5682 14.1246 14.5767 13.1539 15.379C12.1861 16.1765 10.7474 16.7527 8.90672 16.7536C7.16488 16.7554 5.73378 17.4167 4.71901 18.0875C4.20969 18.4233 3.79821 18.7667 3.49226 19.0468C3.33978 19.1859 3.21314 19.3107 3.11529 19.4101C3.01935 19.5075 2.94648 19.587 2.92346 19.6097C2.37098 20.1849 1.9058 20.8376 1.52692 21.5453C1.24399 22.0751 1.00704 22.6351 0.813307 23.2217C0.521722 24.1006 0.322217 25.04 0.190789 26.0466C0.0604041 27.055 0 28.1363 0 29.3066V31H2.10825V29.3066C2.10825 28.2073 2.16485 27.213 2.28185 26.3105C2.39793 25.407 2.57442 24.5981 2.81708 23.8678C2.97723 23.3824 3.16907 22.9321 3.39159 22.5159C3.68704 21.9615 4.04192 21.4676 4.45339 21.04C4.50041 20.9918 4.55026 20.9378 4.62889 20.8565C4.89746 20.5841 5.45184 20.0618 6.20001 19.6229C6.95009 19.182 7.87181 18.832 8.90678 18.832Z" fill="#616161"/>
</g>
<defs>
<clipPath id="clip0_882_3318">
<rect width="31" height="31" fill="white"/>
</clipPath>
</defs>
</svg>
