<svg width="32" height="31" viewBox="0 0 32 31" fill="none" xmlns="http://www.w3.org/2000/svg">
<path d="M29.725 8.03292L23.9125 2.22042C23.8225 2.13041 23.7156 2.05902 23.598 2.01031C23.4804 1.96159 23.3544 1.93652 23.2271 1.93652C23.0998 1.93652 22.9738 1.96159 22.8562 2.01031C22.7386 2.05902 22.6317 2.13041 22.5417 2.22042C22.4517 2.31043 22.3803 2.41728 22.3316 2.53488C22.2829 2.65248 22.2578 2.77852 22.2578 2.90581C22.2578 3.0331 22.2829 3.15914 22.3316 3.27674C22.3803 3.39434 22.4517 3.5012 22.5417 3.5912L24.7638 5.81206L21.2896 9.28624L17.1312 5.12667C16.9495 4.94489 16.7029 4.84277 16.4459 4.84277C16.1888 4.84277 15.9422 4.94489 15.7605 5.12667C15.5787 5.30845 15.4766 5.55499 15.4766 5.81206C15.4766 6.06913 15.5787 6.31568 15.7605 6.49745L16.5294 7.26519L6.35753 17.4371C6.17683 17.6163 6.03357 17.8297 5.93607 18.0648C5.83858 18.3 5.78879 18.5521 5.7896 18.8066V24.7862L3.16671 27.4079C3.0767 27.4979 3.00531 27.6048 2.9566 27.7224C2.90788 27.84 2.88281 27.966 2.88281 28.0933C2.88281 28.2206 2.90788 28.3466 2.9566 28.4642C3.00531 28.5818 3.0767 28.6887 3.16671 28.7787C3.34849 28.9605 3.59503 29.0626 3.8521 29.0626C3.97939 29.0626 4.10543 29.0375 4.22303 28.9888C4.34063 28.9401 4.44749 28.8687 4.53749 28.7787L7.15917 26.1558H13.1388C13.3933 26.1566 13.6455 26.1068 13.8806 26.0093C14.1157 25.9118 14.3291 25.7686 14.5084 25.5879L24.6802 15.416L25.448 16.185C25.538 16.275 25.6448 16.3464 25.7624 16.3951C25.88 16.4438 26.0061 16.4689 26.1334 16.4689C26.2606 16.4689 26.3867 16.4438 26.5043 16.3951C26.6219 16.3464 26.7287 16.275 26.8187 16.185C26.9088 16.0949 26.9801 15.9881 27.0289 15.8705C27.0776 15.7529 27.1026 15.6269 27.1026 15.4996C27.1026 15.3723 27.0776 15.2462 27.0289 15.1286C26.9801 15.011 26.9088 14.9042 26.8187 14.8142L22.6592 10.6558L26.1334 7.18163L28.3542 9.4037C28.536 9.58548 28.7825 9.6876 29.0396 9.6876C29.2967 9.6876 29.5432 9.58548 29.725 9.4037C29.9068 9.22193 30.0089 8.97538 30.0089 8.71831C30.0089 8.46124 29.9068 8.2147 29.725 8.03292ZM13.1388 24.2183H7.7271V18.8066L9.90679 16.6269L12.3698 19.0912C12.4598 19.1812 12.5667 19.2526 12.6843 19.3013C12.8019 19.35 12.9279 19.3751 13.0552 19.3751C13.1825 19.3751 13.3086 19.35 13.4262 19.3013C13.5438 19.2526 13.6506 19.1812 13.7406 19.0912C13.8306 19.0012 13.902 18.8943 13.9507 18.7767C13.9994 18.6591 14.0245 18.5331 14.0245 18.4058C14.0245 18.2785 13.9994 18.1525 13.9507 18.0349C13.902 17.9173 13.8306 17.8104 13.7406 17.7204L11.2764 15.2574L12.813 13.7207L15.2761 16.185C15.4579 16.3667 15.7044 16.4689 15.9615 16.4689C16.2185 16.4689 16.4651 16.3667 16.6469 16.185C16.8286 16.0032 16.9308 15.7566 16.9308 15.4996C16.9308 15.2425 16.8286 14.9959 16.6469 14.8142L14.1826 12.3511L17.899 8.63476L23.3107 14.0464L13.1388 24.2183Z" fill="#616161"/>
</svg>
