<svg width="32" height="31" viewBox="0 0 32 31" fill="none" xmlns="http://www.w3.org/2000/svg">
<g clip-path="url(#clip0_882_1768)">
<path d="M25.1641 24.7637V28.0938C25.1641 28.3507 25.0621 28.5971 24.8804 28.7788C24.6987 28.9604 24.4523 29.0625 24.1954 29.0625C23.9384 29.0625 23.692 28.9604 23.5104 28.7788C23.3287 28.5971 23.2266 28.3507 23.2266 28.0938V24.7637C23.2314 23.3233 22.8325 21.9103 22.0753 20.685C21.3181 19.4597 20.2327 18.4711 18.9423 17.8311L13.0814 14.9018C11.4685 14.1018 10.1119 12.866 9.16545 11.3344C8.21902 9.80283 7.72057 8.03673 7.72662 6.23633V2.90625C7.72662 2.64932 7.82868 2.40292 8.01036 2.22124C8.19203 2.03956 8.43844 1.9375 8.69537 1.9375C8.9523 1.9375 9.1987 2.03956 9.38038 2.22124C9.56205 2.40292 9.66412 2.64932 9.66412 2.90625V6.23633C9.65937 7.67673 10.0582 9.08965 10.8154 10.315C11.5727 11.5403 12.658 12.5289 13.9484 13.1689L19.8094 16.0982C21.4223 16.8982 22.7788 18.134 23.7253 19.6656C24.6717 21.1972 25.1702 22.9633 25.1641 24.7637ZM20.3204 24.2188H9.6847C9.73131 23.5588 9.86277 22.9076 10.0758 22.2812H18.8806C19.1375 22.2812 19.3839 22.1792 19.5656 21.9975C19.7472 21.8158 19.8493 21.5694 19.8493 21.3125C19.8493 21.0556 19.7472 20.8092 19.5656 20.6275C19.3839 20.4458 19.1375 20.3438 18.8806 20.3438H11.0519C11.538 19.641 12.1375 19.0239 12.8259 18.5177C12.9286 18.4424 13.0155 18.3476 13.0816 18.2387C13.1477 18.1298 13.1917 18.009 13.2111 17.8831C13.2305 17.7572 13.2249 17.6287 13.1946 17.505C13.1644 17.3813 13.1101 17.2647 13.0348 17.162C12.9595 17.0593 12.8647 16.9724 12.7558 16.9063C12.6469 16.8402 12.5261 16.7962 12.4002 16.7768C12.2743 16.7574 12.1458 16.763 12.0221 16.7932C11.8984 16.8235 11.7818 16.8778 11.6791 16.9531C10.4554 17.8552 9.46032 19.0318 8.77387 20.3883C8.08742 21.7448 7.72873 23.2434 7.72662 24.7637V28.0938C7.72662 28.3507 7.82868 28.5971 8.01036 28.7788C8.19203 28.9604 8.43844 29.0625 8.69537 29.0625C8.9523 29.0625 9.1987 28.9604 9.38038 28.7788C9.56205 28.5971 9.66412 28.3507 9.66412 28.0938V26.1562H20.3204C20.5773 26.1562 20.8237 26.0542 21.0054 25.8725C21.1871 25.6908 21.2891 25.4444 21.2891 25.1875C21.2891 24.9306 21.1871 24.6842 21.0054 24.5025C20.8237 24.3208 20.5773 24.2188 20.3204 24.2188ZM24.1954 1.9375C23.9384 1.9375 23.692 2.03956 23.5104 2.22124C23.3287 2.40292 23.2266 2.64932 23.2266 2.90625V4.84375H12.5704C12.3134 4.84375 12.067 4.94581 11.8854 5.12749C11.7037 5.30917 11.6016 5.55557 11.6016 5.8125C11.6016 6.06943 11.7037 6.31583 11.8854 6.49751C12.067 6.67919 12.3134 6.78125 12.5704 6.78125H23.206C23.1594 7.4412 23.028 8.0924 22.8149 8.71875H14.0102C13.7532 8.71875 13.5068 8.82081 13.3252 9.00249C13.1435 9.18417 13.0414 9.43057 13.0414 9.6875C13.0414 9.94443 13.1435 10.1908 13.3252 10.3725C13.5068 10.5542 13.7532 10.6562 14.0102 10.6562H21.8389C21.3528 11.359 20.7532 11.9761 20.0649 12.4823C19.9623 12.5576 19.8756 12.6524 19.8096 12.7612C19.7437 12.87 19.6998 12.9908 19.6805 13.1165C19.6612 13.2423 19.6669 13.3707 19.6972 13.4942C19.7275 13.6178 19.7819 13.7342 19.8572 13.8368C20.0093 14.0439 20.2374 14.1822 20.4914 14.2211C20.6172 14.2404 20.7455 14.2347 20.8691 14.2044C20.9927 14.1741 21.109 14.1198 21.2116 14.0445C22.435 13.1426 23.4299 11.9664 24.1163 10.6104C24.8027 9.25433 25.1616 7.75621 25.1641 6.23633V2.90625C25.1641 2.64932 25.0621 2.40292 24.8804 2.22124C24.6987 2.03956 24.4523 1.9375 24.1954 1.9375Z" fill="#616161"/>
</g>
<defs>
<clipPath id="clip0_882_1768">
<rect width="31" height="31" fill="white" transform="translate(0.945312)"/>
</clipPath>
</defs>
</svg>
