<svg width="29" height="29" viewBox="0 0 29 29" fill="none" xmlns="http://www.w3.org/2000/svg">
<path d="M26.1586 24.0158C24.4333 21.0331 21.7746 18.8943 18.6718 17.8805C20.2066 16.9668 21.399 15.5746 22.0659 13.9177C22.7329 12.2607 22.8375 10.4306 22.3637 8.70849C21.8899 6.98633 20.8639 5.46732 19.4432 4.38473C18.0225 3.30214 16.2858 2.71582 14.4997 2.71582C12.7135 2.71582 10.9768 3.30214 9.55609 4.38473C8.13542 5.46732 7.1094 6.98633 6.6356 8.70849C6.16179 10.4306 6.2664 12.2607 6.93335 13.9177C7.60031 15.5746 8.79273 16.9668 10.3275 17.8805C7.22473 18.8932 4.56602 21.0319 2.84074 24.0158C2.77748 24.1189 2.73551 24.2337 2.71732 24.3534C2.69914 24.473 2.7051 24.5951 2.73485 24.7124C2.76461 24.8297 2.81756 24.9399 2.89058 25.0364C2.9636 25.1329 3.05521 25.2138 3.16 25.2743C3.26479 25.3348 3.38065 25.3738 3.50073 25.3888C3.62081 25.4038 3.74269 25.3947 3.85917 25.3618C3.97565 25.329 4.08437 25.2732 4.17892 25.1976C4.27347 25.1221 4.35194 25.0284 4.40969 24.922C6.54391 21.2336 10.3162 19.0314 14.4997 19.0314C18.6831 19.0314 22.4554 21.2336 24.5896 24.922C24.6474 25.0284 24.7258 25.1221 24.8204 25.1976C24.9149 25.2732 25.0237 25.329 25.1401 25.3618C25.2566 25.3947 25.3785 25.4038 25.4986 25.3888C25.6187 25.3738 25.7345 25.3348 25.8393 25.2743C25.9441 25.2138 26.0357 25.1329 26.1087 25.0364C26.1817 24.9399 26.2347 24.8297 26.2644 24.7124C26.2942 24.5951 26.3002 24.473 26.282 24.3534C26.2638 24.2337 26.2218 24.1189 26.1586 24.0158ZM8.1559 10.8752C8.1559 9.62048 8.52795 8.39398 9.22501 7.35075C9.92207 6.30753 10.9128 5.49443 12.072 5.01429C13.2312 4.53415 14.5067 4.40852 15.7373 4.6533C16.9678 4.89807 18.0982 5.50225 18.9854 6.38944C19.8725 7.27663 20.4767 8.40698 20.7215 9.63755C20.9663 10.8681 20.8407 12.1436 20.3605 13.3028C19.8804 14.462 19.0673 15.4527 18.024 16.1498C16.9808 16.8468 15.7543 17.2189 14.4997 17.2189C12.8177 17.2171 11.2052 16.5482 10.0159 15.3589C8.82663 14.1696 8.1577 12.5571 8.1559 10.8752Z" fill="white"/>
</svg>
