<svg width="100" height="100" viewBox="0 0 100 100" fill="none" xmlns="http://www.w3.org/2000/svg">
<path d="M90 11.7391V27.3913C90 27.8526 89.8168 28.2949 89.4906 28.6211C89.1645 28.9472 88.7221 29.1304 88.2609 29.1304C87.7996 29.1304 87.3573 28.9472 87.0311 28.6211C86.705 28.2949 86.5217 27.8526 86.5217 27.3913V13.4783H72.6087C72.1475 13.4783 71.7051 13.295 71.3789 12.9689C71.0528 12.6427 70.8696 12.2004 70.8696 11.7391C70.8696 11.2779 71.0528 10.8355 71.3789 10.5094C71.7051 10.1832 72.1475 10 72.6087 10H88.2609C88.7221 10 89.1645 10.1832 89.4906 10.5094C89.8168 10.8355 90 11.2779 90 11.7391ZM88.2609 70.8696C87.7996 70.8696 87.3573 71.0528 87.0311 71.3789C86.705 71.7051 86.5217 72.1475 86.5217 72.6087V86.5217H72.6087C72.1475 86.5217 71.7051 86.705 71.3789 87.0311C71.0528 87.3573 70.8696 87.7996 70.8696 88.2609C70.8696 88.7221 71.0528 89.1645 71.3789 89.4906C71.7051 89.8168 72.1475 90 72.6087 90H88.2609C88.7221 90 89.1645 89.8168 89.4906 89.4906C89.8168 89.1645 90 88.7221 90 88.2609V72.6087C90 72.1475 89.8168 71.7051 89.4906 71.3789C89.1645 71.0528 88.7221 70.8696 88.2609 70.8696ZM27.3913 86.5217H13.4783V72.6087C13.4783 72.1475 13.295 71.7051 12.9689 71.3789C12.6427 71.0528 12.2004 70.8696 11.7391 70.8696C11.2779 70.8696 10.8355 71.0528 10.5094 71.3789C10.1832 71.7051 10 72.1475 10 72.6087V88.2609C10 88.7221 10.1832 89.1645 10.5094 89.4906C10.8355 89.8168 11.2779 90 11.7391 90H27.3913C27.8526 90 28.2949 89.8168 28.6211 89.4906C28.9472 89.1645 29.1304 88.7221 29.1304 88.2609C29.1304 87.7996 28.9472 87.3573 28.6211 87.0311C28.2949 86.705 27.8526 86.5217 27.3913 86.5217ZM11.7391 29.1304C12.2004 29.1304 12.6427 28.9472 12.9689 28.6211C13.295 28.2949 13.4783 27.8526 13.4783 27.3913V13.4783H27.3913C27.8526 13.4783 28.2949 13.295 28.6211 12.9689C28.9472 12.6427 29.1304 12.2004 29.1304 11.7391C29.1304 11.2779 28.9472 10.8355 28.6211 10.5094C28.2949 10.1832 27.8526 10 27.3913 10H11.7391C11.2779 10 10.8355 10.1832 10.5094 10.5094C10.1832 10.8355 10 11.2779 10 11.7391V27.3913C10 27.8526 10.1832 28.2949 10.5094 28.6211C10.8355 28.9472 11.2779 29.1304 11.7391 29.1304ZM70.8696 69.1304C70.5996 69.1304 70.3333 69.0676 70.0918 68.9468C69.8503 68.8261 69.6403 68.6508 69.4783 68.4348C67.2103 65.4109 64.2695 62.9565 60.8887 61.2661C57.5079 59.5757 53.7799 58.6957 50 58.6957C46.2201 58.6957 42.4922 59.5757 39.1113 61.2661C35.7305 62.9565 32.7897 65.4109 30.5217 68.4348C30.245 68.8038 29.833 69.0477 29.3764 69.113C28.9198 69.1782 28.456 69.0594 28.087 68.7826C27.718 68.5059 27.474 68.0939 27.4088 67.6373C27.3436 67.1806 27.4624 66.7168 27.7391 66.3478C31.2687 61.6134 36.2201 58.1322 41.8696 56.413C38.9512 54.639 36.6931 51.9591 35.4398 48.782C34.1865 45.605 34.0067 42.1052 34.9279 38.8165C35.8491 35.5278 37.8206 32.6306 40.5419 30.5668C43.2631 28.5031 46.5847 27.386 50 27.386C53.4153 27.386 56.7369 28.5031 59.4581 30.5668C62.1794 32.6306 64.1509 35.5278 65.0721 38.8165C65.9933 42.1052 65.8135 45.605 64.5602 48.782C63.3069 51.9591 61.0488 54.639 58.1304 56.413C63.7799 58.1322 68.7313 61.6134 72.2609 66.3478C72.4547 66.6062 72.5727 66.9134 72.6017 67.2351C72.6307 67.5568 72.5695 67.8802 72.4251 68.1691C72.2807 68.4579 72.0586 68.7009 71.7839 68.8707C71.5091 69.0405 71.1925 69.1304 70.8696 69.1304ZM50 55.2174C52.4078 55.2174 54.7615 54.5034 56.7635 53.1657C58.7655 51.828 60.3258 49.9267 61.2472 47.7022C62.1686 45.4777 62.4097 43.03 61.94 40.6685C61.4703 38.307 60.3108 36.1378 58.6083 34.4352C56.9057 32.7327 54.7365 31.5732 52.375 31.1035C50.0135 30.6338 47.5657 30.8748 45.3412 31.7962C43.1168 32.7177 41.2154 34.278 39.8778 36.28C38.5401 38.282 37.8261 40.6357 37.8261 43.0435C37.8261 46.2722 39.1087 49.3687 41.3917 51.6517C43.6748 53.9348 46.7713 55.2174 50 55.2174Z" fill="#004051"/>
</svg>
