<svg width="32" height="27" viewBox="0 0 32 27" fill="none" xmlns="http://www.w3.org/2000/svg">
<g clip-path="url(#clip0_882_4026)">
<path d="M16.0319 0.873788C16.0215 0.873788 16.0111 0.873788 16.0007 0.873788C15.9902 0.873788 15.9798 0.873788 15.9694 0.873788C15.4772 0.87098 14.9746 0.899056 14.4642 0.966436C13.9694 1.03101 13.4746 1.12927 12.9798 1.26403C12.4199 1.41564 11.8913 1.69359 11.3783 1.9603C10.7793 2.27474 10.196 2.57796 9.55275 2.7071C8.96681 2.82502 8.43035 2.76045 7.82358 2.68745C7.00848 2.592 6.05014 2.47689 4.69598 2.81941C4.36525 2.90363 4.04754 3.00189 3.74806 3.1142C2.69337 3.51567 1.83139 4.11368 1.32619 4.97559C0.823582 5.83188 0.656915 6.97455 0.98504 8.47657C1.05275 8.7854 1.13869 9.10546 1.24806 9.44236L2.10483 11.1662C2.11785 11.1915 2.12827 11.2167 2.13348 11.242C2.18556 11.3964 2.25327 11.6379 2.3366 11.9214C2.54754 12.657 2.84702 13.7042 2.95639 13.8755C2.96421 13.867 2.97462 13.8586 2.98244 13.8474C2.99806 13.794 3.0215 13.7435 3.05796 13.6986C3.06577 13.6873 3.07358 13.6761 3.084 13.6677C3.19337 13.4094 3.25327 13.0107 3.209 12.4998C3.04754 10.6075 3.69077 10.2285 4.35223 9.84103C4.65431 9.66416 4.96421 9.48167 5.09962 8.93982C4.83139 8.8949 4.59181 8.81909 4.41733 8.76294C4.3366 8.73767 4.34181 8.71521 4.31056 8.71802C4.15431 8.72645 3.97202 8.76294 3.79494 8.79663C2.93556 8.95947 2.15171 9.11108 1.84442 7.63712C1.73244 7.10369 1.78452 6.53938 2.00587 6.00876C2.209 5.52025 2.55535 5.05981 3.04754 4.6808C3.26629 4.51234 3.51108 4.36635 3.7741 4.24282C4.79233 3.76835 6.10483 3.65605 7.31837 3.9003H7.32098C8.55535 4.14737 9.69858 4.76783 10.3574 5.7617C10.4876 5.95822 10.5996 6.16598 10.6882 6.39058C10.8027 6.67414 10.8861 6.98016 10.9356 7.30303C10.9798 7.58659 10.9981 7.88419 10.9876 8.19582C10.9929 8.21267 10.9955 8.22951 10.9955 8.24916C11.0241 8.49342 11.0397 8.72083 11.058 8.9342C11.071 9.09985 11.084 9.25707 11.0944 9.36656C11.196 10.3632 11.4642 10.9304 11.7272 11.4834C12.0814 12.2274 12.4225 12.9518 12.4251 14.4678C12.4251 14.8721 12.4173 15.1978 12.4121 15.487C12.3887 16.4471 12.3783 16.9722 12.7559 18.3928C12.8939 18.9122 13.0319 19.5298 13.1673 20.139L13.2038 20.3019C13.3288 20.8662 13.3626 21.5456 13.3184 22.2222C13.2741 22.9241 13.1465 23.6344 12.9564 24.2128C12.8548 24.5216 12.7429 24.7209 12.6569 24.8753C12.6517 24.8838 12.6465 24.895 12.6413 24.9034C12.597 24.9905 12.5996 25.0438 12.8418 25.2909C12.9382 25.3891 13.0684 25.479 13.2246 25.5576C13.4824 24.8529 13.6543 24.3138 13.7533 23.7327C13.8705 23.0505 13.8965 22.2812 13.8548 21.088C13.8418 20.7174 13.9564 20.3328 14.1048 19.8358C14.4251 18.769 14.9251 17.0929 14.4147 14.2292C14.3314 13.7603 14.2142 13.2999 14.071 12.8591C13.9199 12.3931 13.7376 11.9495 13.5397 11.5396C13.4121 11.2785 13.2897 11.0286 13.1804 10.8068C12.3054 9.03808 12.222 8.86963 12.0319 6.23336C12.0319 6.22494 11.959 6.10983 11.8861 5.99753C11.7689 5.81504 11.6517 5.62974 11.6022 5.41918C11.5892 5.37145 11.5814 5.32372 11.5814 5.27319V4.16702H11.584C11.584 4.12491 11.5892 4.08279 11.5996 4.04068C11.6647 3.77396 11.9173 3.61394 12.1647 3.68132C13.4225 4.03787 14.6908 4.21475 15.9616 4.21475C17.2194 4.21475 18.4746 4.04068 19.722 3.69255C19.7715 3.67289 19.821 3.66447 19.8757 3.66447C20.1335 3.66447 20.3418 3.88907 20.3418 4.16702V5.27319C20.3418 5.30407 20.3392 5.33495 20.334 5.36583C20.2923 5.60167 20.1647 5.801 20.0371 6.00034C19.9642 6.11264 19.8913 6.22774 19.8913 6.23617C19.6986 8.87244 19.6152 9.04089 18.7429 10.8096C18.6335 11.0342 18.5085 11.2813 18.3835 11.5424C18.1856 11.9495 18.0059 12.3959 17.8522 12.8619C17.709 13.3027 17.5918 13.7603 17.5085 14.232C16.9981 17.0957 17.4981 18.7718 17.8184 19.8386C17.9668 20.3356 18.0814 20.7202 18.0684 21.0908C18.0293 22.284 18.0554 23.0533 18.1699 23.7355C18.2741 24.3391 18.4538 24.895 18.7298 25.6418C18.8913 25.5435 19.0397 25.4256 19.1725 25.2909C19.4382 25.0213 19.4173 24.982 19.3574 24.8782C19.2689 24.7181 19.1543 24.516 19.0554 24.2156C18.8652 23.6372 18.7402 22.9269 18.6934 22.225C18.6491 21.5484 18.683 20.8662 18.808 20.3047L18.8444 20.1419C18.9798 19.5354 19.1179 18.9178 19.2559 18.3956C19.6335 16.9778 19.6205 16.4528 19.5996 15.4898C19.5918 15.2006 19.584 14.8749 19.5866 14.4706C19.5892 12.9546 19.9304 12.233 20.2845 11.4862C20.5475 10.9332 20.8158 10.366 20.9173 9.36937C20.9277 9.25988 20.9408 9.10265 20.9538 8.93701C20.9694 8.72364 20.9876 8.49623 21.0163 8.25197C21.0189 8.23513 21.0215 8.21548 21.0241 8.19863C21.0137 7.88699 21.0319 7.5894 21.0762 7.30584C21.1257 6.98297 21.209 6.67695 21.3236 6.39339C21.4121 6.16879 21.5241 5.95822 21.6543 5.7645C22.3132 4.77064 23.459 4.15017 24.6908 3.90311H24.6934C25.9069 3.65886 27.2194 3.77396 28.2376 4.24563C28.5007 4.36635 28.7455 4.51234 28.9642 4.6836C29.4564 5.06543 29.8027 5.52306 30.0059 6.01157C30.2272 6.545 30.2793 7.1065 30.1673 7.63993C29.86 9.11388 29.0762 8.96509 28.2168 8.79944C28.0397 8.76575 27.86 8.73206 27.7012 8.72083C27.6699 8.71802 27.6777 8.74048 27.6048 8.76294C27.4434 8.81348 27.222 8.88086 26.9694 8.92017C27.1022 9.46483 27.4043 9.65012 27.6986 9.83261C28.3418 10.2285 28.9642 10.6131 28.8027 12.5026C28.7585 13.0135 28.8184 13.4094 28.9277 13.6705C28.9356 13.6789 28.946 13.6902 28.9538 13.7014C28.9876 13.7463 29.0137 13.7968 29.0293 13.8502C29.0371 13.8614 29.0475 13.8698 29.0554 13.8783C29.1647 13.707 29.4668 12.6598 29.6751 11.9242C29.7559 11.6407 29.8262 11.3992 29.8783 11.2448C29.8861 11.2195 29.8965 11.1943 29.9069 11.169L30.7637 9.44517C30.8731 9.10827 30.959 8.78821 31.0267 8.47938C31.3548 6.97736 31.1882 5.83469 30.6856 4.97839C30.1804 4.11648 29.3184 3.51848 28.2637 3.117C27.9642 3.00189 27.6465 2.90363 27.3158 2.82221C25.9616 2.47969 25.0033 2.592 24.1882 2.69026C23.5788 2.76325 23.0449 2.82502 22.459 2.70991C21.8158 2.58077 21.235 2.27755 20.6335 1.96311C20.1205 1.69359 19.5918 1.41845 19.0319 1.26684C18.5371 1.13208 18.0423 1.03382 17.5475 0.969244C17.0267 0.899056 16.5241 0.87098 16.0319 0.873788ZM14.1074 25.8664L14.1205 25.8692C14.8731 26.0573 15.7429 26.1359 16.4095 26.1275C16.4199 26.1275 16.4277 26.1275 16.4382 26.1275C16.4486 26.1275 16.4564 26.1275 16.4668 26.1275C16.9694 26.1331 17.4356 26.091 17.8522 25.9871C17.5606 25.1982 17.3679 24.5974 17.2507 23.9096C17.1205 23.1515 17.0918 22.3205 17.1335 21.0515C17.1387 20.855 17.0475 20.5461 16.9251 20.1419C16.5788 18.9795 16.0319 17.1518 16.5866 14.0411C16.6777 13.5273 16.808 13.0192 16.9668 12.5306C17.1335 12.0225 17.3314 11.534 17.5527 11.0792C17.696 10.7872 17.8132 10.5485 17.9173 10.338C18.7064 8.74329 18.7819 8.59168 18.959 6.15756C18.9798 5.88523 19.1231 5.65782 19.2689 5.43321C19.3262 5.34337 19.3861 5.25353 19.4069 5.2058V4.80433C18.2585 5.08227 17.1074 5.21984 15.959 5.21984C14.8106 5.21984 13.6595 5.07947 12.5111 4.80433V5.2058C12.5319 5.25073 12.5918 5.34057 12.6491 5.43321C12.7949 5.65782 12.9382 5.88523 12.959 6.15756C13.1361 8.59168 13.2116 8.7461 14.0007 10.338C14.1048 10.5485 14.222 10.7844 14.3652 11.0792C14.5866 11.5312 14.7845 12.0225 14.9512 12.5306C15.11 13.0192 15.2402 13.5273 15.3314 14.0411C15.8861 17.1518 15.3418 18.9767 14.9929 20.1419C14.8731 20.5461 14.7793 20.8578 14.7845 21.0515C14.8262 22.3205 14.7975 23.1515 14.6673 23.9096C14.5527 24.5609 14.3731 25.1364 14.1074 25.8664ZM13.4564 26.5823C13.4225 26.5767 13.3861 26.5655 13.3522 26.5514C13.3366 26.5458 13.3236 26.5374 13.3106 26.529C12.8913 26.3718 12.5319 26.1724 12.2845 25.9197C11.558 25.1786 11.6491 24.9764 11.9434 24.4514C11.9486 24.4402 11.9538 24.4318 11.959 24.4205C12.0293 24.297 12.1179 24.1398 12.1908 23.918C12.3574 23.4126 12.4668 22.7865 12.5085 22.1605C12.5475 21.5597 12.5215 20.9701 12.4147 20.4984L12.3783 20.3356C12.2533 19.7713 12.1231 19.1957 11.972 18.6286C11.5632 17.0901 11.5762 16.5145 11.5996 15.4645C11.6074 15.1781 11.6152 14.8525 11.6126 14.4678C11.61 13.1623 11.3106 12.5335 11.0033 11.8821C10.7064 11.256 10.4017 10.6131 10.2845 9.45921C10.2663 9.28514 10.2559 9.15038 10.2455 9.00439L10.2324 8.83875C10.1257 8.88928 10.0267 8.95385 9.93556 9.03808C9.72723 9.23461 9.54754 9.54624 9.41212 10.0319C9.27931 10.512 9.22202 10.9753 9.16473 11.4329C9.07098 12.1825 8.97983 12.9293 8.59702 13.7856C8.47983 14.0467 8.34181 14.2769 8.18817 14.4819C7.70119 15.1192 7.05275 15.4589 6.34181 15.5375C5.65952 15.6161 4.91994 15.4505 4.21421 15.0827C3.95119 14.9451 3.69077 14.7795 3.43817 14.5858C3.31056 14.6924 3.16733 14.7542 3.01629 14.7682C2.87046 14.7823 2.72983 14.7514 2.59442 14.6756C2.2116 14.4566 1.82619 13.109 1.56056 12.1797C1.48504 11.9186 1.41994 11.694 1.37567 11.5536L0.521499 9.83823C0.508478 9.81577 0.498061 9.7905 0.490249 9.76523C0.365249 9.38621 0.26629 9.02404 0.19077 8.67591C-0.189439 6.92401 0.0188945 5.56236 0.636082 4.50954C1.25067 3.46233 2.25587 2.75202 3.47462 2.28878C3.80535 2.16244 4.15171 2.05576 4.50848 1.96592C5.99806 1.59252 7.03192 1.71324 7.91212 1.81712C8.459 1.88169 8.94077 1.93784 9.40691 1.84519C9.93816 1.73851 10.4746 1.45775 11.0241 1.17139C11.5762 0.882211 12.1413 0.58742 12.7819 0.413353C13.3106 0.270169 13.8418 0.163483 14.3679 0.0961026C14.8991 0.0259144 15.4356 -0.00496844 15.9746 0.000646619C15.9824 0.000646619 15.9902 0.000646619 15.9981 0.000646619C16.0059 0.000646619 16.0137 0.000646619 16.0215 0.000646619C16.5606 -0.00496844 17.097 0.0259144 17.6283 0.0961026C18.1543 0.163483 18.6856 0.270169 19.2142 0.413353C19.8522 0.58742 20.4199 0.885018 20.972 1.17139C21.5241 1.46056 22.058 1.73851 22.5892 1.84519C23.0554 1.93784 23.5371 1.88169 24.084 1.81712C24.9642 1.71324 25.9981 1.58971 27.485 1.96592C27.8418 2.05576 28.1882 2.16244 28.5189 2.28878C29.7376 2.75202 30.7429 3.46233 31.3574 4.50954C31.9746 5.55955 32.1856 6.92401 31.8027 8.67591C31.7272 9.02124 31.6283 9.38341 31.5033 9.76523C31.4955 9.7905 31.485 9.81577 31.472 9.83823L30.6179 11.5536C30.5736 11.6912 30.5085 11.9186 30.433 12.1797C30.1673 13.109 29.7819 14.4538 29.3991 14.6756C29.2663 14.7514 29.1231 14.7823 28.9772 14.7682C28.8262 14.7542 28.683 14.6924 28.5554 14.5858C28.3027 14.7795 28.0423 14.9451 27.7793 15.0827C27.0736 15.4505 26.334 15.6161 25.6517 15.5375C24.9408 15.4561 24.2949 15.1192 23.8054 14.4819C23.6491 14.2797 23.5111 14.0467 23.3965 13.7856C23.0137 12.9293 22.9199 12.1825 22.8288 11.4329C22.7715 10.9725 22.7142 10.512 22.5814 10.0319C22.446 9.54624 22.2663 9.23461 22.058 9.03808C21.9668 8.95385 21.8679 8.88928 21.7611 8.83875L21.7481 9.00439C21.7376 9.14757 21.7272 9.28514 21.709 9.45921C21.5918 10.6131 21.2871 11.256 20.9902 11.8821C20.683 12.5335 20.3835 13.1623 20.3809 14.4678C20.3809 14.8525 20.3887 15.1781 20.3939 15.4645C20.4173 16.5173 20.433 17.0929 20.0215 18.6286C19.8705 19.1985 19.7429 19.7713 19.6152 20.3356L19.5788 20.4984C19.4746 20.9701 19.4486 21.5597 19.485 22.1605C19.5241 22.7865 19.6361 23.4126 19.8027 23.918C19.8783 24.1454 19.9642 24.2998 20.0319 24.4205C20.3392 24.968 20.4486 25.1645 19.7064 25.9197C19.308 26.3268 18.8184 26.602 18.2533 26.776C17.7142 26.9417 17.1048 27.0091 16.446 27.0035C16.4382 27.0035 16.433 27.0035 16.4251 27.0035C16.4173 27.0035 16.4121 27.0035 16.4043 27.0035C15.6804 27.0119 14.7402 26.9277 13.9277 26.7255C13.7715 26.6806 13.61 26.6329 13.4564 26.5823ZM11.597 5.41918C11.5918 5.40233 11.5892 5.38268 11.5866 5.36583L11.597 5.41918ZM5.45639 8.10037C5.49546 8.09475 5.53712 8.09194 5.57879 8.10037C5.5866 8.10037 5.59181 8.10037 5.59962 8.10037C5.6465 8.10317 5.69077 8.1144 5.72983 8.13406C6.41212 8.28566 7.00587 8.19582 7.52671 7.80558C8.07098 7.39848 8.56056 6.66853 9.01629 5.55113C8.50327 5.15808 7.85483 4.89417 7.17254 4.7566C6.11004 4.54323 4.97202 4.63868 4.09702 5.04578C3.88869 5.14404 3.69598 5.25915 3.5241 5.3911C3.15171 5.68028 2.89389 6.01437 2.74806 6.36531C2.59962 6.72187 2.56317 7.09527 2.63608 7.44621C2.7741 8.10317 3.19337 8.02176 3.65431 7.93472C3.84702 7.89822 4.04754 7.85892 4.26369 7.84769C4.37046 7.84207 4.48764 7.87857 4.64389 7.92911C4.84962 7.99087 5.16212 8.08914 5.45639 8.10037ZM9.63869 6.18282C9.1491 7.30022 8.60483 8.06106 7.98504 8.5243C7.35744 8.99316 6.67514 9.15319 5.91473 9.05493C5.73244 10.0263 5.22983 10.3211 4.74025 10.6075C4.31577 10.8574 3.90431 11.0988 4.01629 12.4212C4.06577 12.9967 4.00587 13.4852 3.88869 13.8558C4.11004 14.0271 4.3366 14.173 4.56837 14.2938C5.14129 14.5914 5.72983 14.7261 6.26108 14.6672C6.76369 14.611 7.22202 14.3724 7.56317 13.926C7.67775 13.7772 7.77931 13.6059 7.86785 13.4066C8.19598 12.6738 8.27931 12 8.36264 11.3206C8.42514 10.8209 8.48504 10.3183 8.63348 9.78208C8.81577 9.12231 9.08139 8.67872 9.40431 8.37831C9.64129 8.15652 9.90171 8.01895 10.1751 7.93472C10.1699 7.76627 10.1569 7.60343 10.1335 7.44621C10.0944 7.19634 10.0293 6.9577 9.94077 6.73591C9.87566 6.57026 9.79233 6.41585 9.69598 6.26986C9.67775 6.23898 9.65691 6.2109 9.63869 6.18282ZM28.1126 13.8558C27.9929 13.4852 27.9356 12.9995 27.985 12.4212C28.097 11.0932 27.696 10.8461 27.2845 10.5906C26.8054 10.2959 26.3158 9.99264 26.1413 9.01001C25.3418 9.13915 24.6335 8.99597 23.9876 8.50746C23.3835 8.05264 22.8522 7.29741 22.3652 6.18282C22.3444 6.2109 22.3262 6.23898 22.308 6.26705C22.2116 6.41304 22.1283 6.56746 22.0632 6.7331C21.9746 6.9577 21.9095 7.19353 21.8705 7.4434C21.847 7.60063 21.8314 7.76066 21.8288 7.93191C22.1022 8.01614 22.3626 8.15371 22.5996 8.3755C22.9225 8.67591 23.1882 9.1195 23.3705 9.77927C23.5189 10.3155 23.5814 10.8181 23.6413 11.3178C23.7246 11.9972 23.808 12.671 24.1361 13.4038C24.2246 13.6031 24.3288 13.7772 24.4408 13.9232C24.7819 14.3696 25.2402 14.6082 25.7429 14.6644C26.2741 14.7233 26.8626 14.5886 27.4356 14.291C27.6647 14.1731 27.8939 14.0243 28.1126 13.8558ZM26.5033 8.07229C26.5111 8.07229 26.5189 8.07229 26.5241 8.0751C26.8392 8.08071 27.1621 7.97964 27.3705 7.91788C27.5189 7.87296 27.6283 7.83927 27.735 7.84488C27.9538 7.85892 28.1517 7.89542 28.3444 7.93191C28.8054 8.01895 29.2272 8.10037 29.3652 7.4434C29.4382 7.09246 29.4043 6.71906 29.2533 6.36251C29.1074 6.01437 28.8522 5.67747 28.4772 5.38829C28.3054 5.25634 28.1126 5.14123 27.9043 5.04297C27.0293 4.63588 25.8913 4.54042 24.8288 4.75379C24.1439 4.89136 23.4981 5.15808 22.985 5.54832C23.4408 6.66572 23.9173 7.39006 24.4486 7.78873C24.9824 8.19021 25.5996 8.2604 26.3314 8.0751C26.3913 8.06106 26.4486 8.06106 26.5033 8.07229Z" fill="#616161"/>
</g>
<defs>
<clipPath id="clip0_882_4026">
<rect width="32" height="27" fill="white"/>
</clipPath>
</defs>
</svg>
