<svg width="14" height="15" viewBox="0 0 14 15" fill="none" xmlns="http://www.w3.org/2000/svg">
<path d="M13.1899 10.2078L9.86837 8.59865C9.71787 8.52894 9.55367 8.50091 9.39062 8.5171C9.22758 8.53329 9.07085 8.5932 8.93462 8.69138C8.92079 8.70098 8.90763 8.71165 8.89524 8.72331L7.15923 10.3196C7.14122 10.3302 7.12116 10.3361 7.10066 10.3369C7.08016 10.3377 7.05977 10.3333 7.0411 10.3241C5.92524 9.74187 4.76931 8.49983 4.2286 7.31025C4.2196 7.29037 4.21492 7.26853 4.21492 7.2464C4.21492 7.22427 4.2196 7.20243 4.2286 7.18255L5.71009 5.28226C5.72072 5.2682 5.73058 5.25348 5.73962 5.23817C5.82919 5.09033 5.88329 4.92071 5.89704 4.74461C5.91079 4.56851 5.88375 4.39148 5.81837 4.2295L4.3404 0.644789C4.25647 0.433179 4.11131 0.256705 3.92672 0.141854C3.74213 0.0270021 3.52807 -0.0200318 3.31665 0.00781095C2.39782 0.138396 1.55442 0.626195 0.94404 1.38005C0.333663 2.13391 -0.0019179 3.10223 8.24581e-06 4.10408C8.24581e-06 10.0558 4.47891 14.8977 9.98438 14.8977C10.9111 14.8997 11.8067 14.5368 12.504 13.877C13.2013 13.2172 13.6526 12.3055 13.7735 11.3123C13.7992 11.0848 13.7563 10.8544 13.6512 10.6554C13.546 10.4564 13.3842 10.2994 13.1899 10.2078ZM9.98438 13.9856C4.94438 13.9856 0.843758 9.5526 0.843758 4.10408C0.841408 3.32415 1.10181 2.56997 1.57631 1.98245C2.0508 1.39493 2.70694 1.01427 3.42212 0.91159H3.43829C3.46662 0.912162 3.49414 0.921975 3.51722 0.939744C3.54031 0.957512 3.55789 0.982407 3.56766 1.01117L5.05126 4.59207C5.05972 4.61198 5.0641 4.63363 5.0641 4.65554C5.0641 4.67745 5.05972 4.6991 5.05126 4.71901L3.56696 6.62387C3.55589 6.63746 3.54578 6.65195 3.53673 6.66719C3.44385 6.82048 3.38916 6.99709 3.37795 7.17993C3.36674 7.36277 3.39939 7.54564 3.47274 7.71083C4.09641 9.0912 5.38313 10.4716 6.67407 11.1458C6.82777 11.2247 6.99776 11.2591 7.16744 11.2458C7.33713 11.2325 7.50073 11.1718 7.64227 11.0698C7.65563 11.0599 7.66899 11.0493 7.68165 11.0379L9.41696 9.44162C9.4341 9.43166 9.45303 9.42583 9.47244 9.42452C9.49186 9.42321 9.51131 9.42645 9.52946 9.43402L12.8517 11.0432C12.8789 11.0557 12.9017 11.0771 12.9169 11.1044C12.9322 11.1316 12.9392 11.1634 12.9368 11.1952C12.8423 11.9687 12.4905 12.6786 11.9472 13.1921C11.4038 13.7056 10.7061 13.9877 9.98438 13.9856Z" fill="white"/>
</svg>
