<svg width="32" height="31" viewBox="0 0 32 31" fill="none" xmlns="http://www.w3.org/2000/svg">
<path d="M17.4141 13.0781C17.4141 12.4075 17.2152 11.752 16.8426 11.1944C16.4701 10.6368 15.9405 10.2022 15.321 9.9456C14.7014 9.68897 14.0197 9.62182 13.362 9.75265C12.7042 9.88348 12.1001 10.2064 11.6259 10.6806C11.1517 11.1548 10.8288 11.7589 10.698 12.4166C10.5671 13.0744 10.6343 13.7561 10.8909 14.3757C11.1475 14.9952 11.5821 15.5248 12.1397 15.8973C12.6973 16.2699 13.3528 16.4688 14.0234 16.4688C14.9227 16.4688 15.7851 16.1115 16.421 15.4757C17.0568 14.8398 17.4141 13.9774 17.4141 13.0781ZM14.0234 14.5312C13.736 14.5312 13.4551 14.446 13.2161 14.2864C12.9772 14.1267 12.7909 13.8997 12.6809 13.6342C12.5709 13.3687 12.5422 13.0765 12.5982 12.7946C12.6543 12.5128 12.7927 12.2538 12.9959 12.0506C13.1991 11.8474 13.4581 11.709 13.7399 11.6529C14.0218 11.5969 14.314 11.6256 14.5795 11.7356C14.845 11.8456 15.072 12.0318 15.2317 12.2708C15.3913 12.5098 15.4766 12.7907 15.4766 13.0781C15.4766 13.4635 15.3235 13.8331 15.051 14.1056C14.7784 14.3782 14.4088 14.5312 14.0234 14.5312ZM22.2578 13.5625C22.641 13.5625 23.0156 13.6761 23.3342 13.889C23.6529 14.1019 23.9012 14.4045 24.0478 14.7586C24.1945 15.1126 24.2328 15.5021 24.1581 15.878C24.0833 16.2538 23.8988 16.5991 23.6278 16.87C23.3569 17.141 23.0116 17.3255 22.6358 17.4003C22.26 17.475 21.8704 17.4367 21.5164 17.29C21.1623 17.1434 20.8597 16.895 20.6468 16.5764C20.4339 16.2578 20.3203 15.8832 20.3203 15.5C20.3203 14.9861 20.5244 14.4933 20.8878 14.13C21.2511 13.7666 21.744 13.5625 22.2578 13.5625ZM18.3828 21.3125C18.3828 21.6957 18.2692 22.0703 18.0563 22.3889C17.8434 22.7075 17.5408 22.9559 17.1868 23.1025C16.8327 23.2492 16.4432 23.2875 16.0673 23.2128C15.6915 23.138 15.3463 22.9535 15.0753 22.6825C14.8043 22.4116 14.6198 22.0663 14.545 21.6905C14.4703 21.3146 14.5087 20.9251 14.6553 20.5711C14.8019 20.217 15.0503 19.9144 15.3689 19.7015C15.6875 19.4886 16.0621 19.375 16.4453 19.375C16.9592 19.375 17.452 19.5791 17.8153 19.9425C18.1787 20.3058 18.3828 20.7986 18.3828 21.3125ZM30.0078 14.5312H28.0291C27.8297 12.1239 26.8816 9.83938 25.3179 7.99824L26.8182 6.49789C27 6.31611 27.1021 6.06957 27.1021 5.8125C27.1021 5.55543 27 5.30889 26.8182 5.12711C26.6364 4.94533 26.3899 4.84321 26.1328 4.84321C25.8757 4.84321 25.6292 4.94533 25.4474 5.12711L23.9531 6.62746C22.1103 5.06254 19.8235 4.11436 17.4141 3.91617V1.9375C17.4141 1.68057 17.312 1.43417 17.1303 1.25249C16.9486 1.07081 16.7022 0.96875 16.4453 0.96875C16.1884 0.96875 15.942 1.07081 15.7603 1.25249C15.5786 1.43417 15.4766 1.68057 15.4766 1.9375V3.91617C13.0692 4.11559 10.7847 5.0637 8.94355 6.62746L7.4432 5.12711C7.26143 4.94533 7.01488 4.84321 6.75781 4.84321C6.50074 4.84321 6.2542 4.94533 6.07242 5.12711C5.89065 5.30889 5.78852 5.55543 5.78852 5.8125C5.78852 6.06957 5.89065 6.31611 6.07242 6.49789L7.57277 7.99824C6.00785 9.84102 5.05967 12.1278 4.86148 14.5373H2.88281C2.62588 14.5373 2.37948 14.6394 2.1978 14.821C2.01613 15.0027 1.91406 15.2491 1.91406 15.5061C1.91406 15.763 2.01613 16.0094 2.1978 16.1911C2.37948 16.3727 2.62588 16.4748 2.88281 16.4748H4.86148C5.06091 18.8822 6.00901 21.1667 7.57277 23.0078L6.07242 24.5021C5.89065 24.6839 5.78852 24.9304 5.78852 25.1875C5.78852 25.4446 5.89065 25.6911 6.07242 25.8729C6.2542 26.0547 6.50074 26.1568 6.75781 26.1568C7.01488 26.1568 7.26143 26.0547 7.4432 25.8729L8.94355 24.3725C10.7863 25.9375 13.0731 26.8856 15.4826 27.0838V29.0625C15.4826 29.3194 15.5847 29.5658 15.7664 29.7475C15.948 29.9292 16.1944 30.0312 16.4514 30.0312C16.7083 30.0312 16.9547 29.9292 17.1364 29.7475C17.3181 29.5658 17.4201 29.3194 17.4201 29.0625V27.0838C19.8275 26.8844 22.112 25.9363 23.9531 24.3725L25.4535 25.8729C25.6353 26.0547 25.8818 26.1568 26.1389 26.1568C26.3959 26.1568 26.6425 26.0547 26.8243 25.8729C27.006 25.6911 27.1082 25.4446 27.1082 25.1875C27.1082 24.9304 27.006 24.6839 26.8243 24.5021L25.3179 23.0078C26.8828 21.165 27.831 18.8782 28.0291 16.4688H30.0078C30.2647 16.4688 30.5111 16.3667 30.6928 16.185C30.8745 16.0033 30.9766 15.7569 30.9766 15.5C30.9766 15.2431 30.8745 14.9967 30.6928 14.815C30.5111 14.6333 30.2647 14.5312 30.0078 14.5312ZM16.4453 25.1875C14.5293 25.1875 12.6563 24.6193 11.0632 23.5549C9.47012 22.4904 8.22845 20.9774 7.49523 19.2072C6.76201 17.4371 6.57016 15.4893 6.94395 13.6101C7.31775 11.7309 8.24039 10.0047 9.59522 8.6499C10.95 7.29508 12.6762 6.37244 14.5554 5.99864C16.4346 5.62485 18.3824 5.81669 20.1526 6.54992C21.9227 7.28314 23.4357 8.52481 24.5002 10.1179C25.5646 11.711 26.1328 13.584 26.1328 15.5C26.1299 18.0684 25.1084 20.5308 23.2922 22.3469C21.4761 24.163 19.0137 25.1846 16.4453 25.1875Z" fill="#616161"/>
</svg>
